<svg width="24" height="24" viewBox="0 0 24 24" fill="none" xmlns="http://www.w3.org/2000/svg">
<path d="M14.4305 18.8191C14.6205 18.8191 14.8105 18.7491 14.9605 18.5991L21.0305 12.5291C21.3205 12.2391 21.3205 11.7591 21.0305 11.4691L14.9605 5.39914C14.6705 5.10914 14.1905 5.10914 13.9005 5.39914C13.6105 5.68914 13.6105 6.16914 13.9005 6.45914L19.4405 11.9991L13.9005 17.5391C13.6105 17.8291 13.6105 18.3091 13.9005 18.5991C14.0405 18.7491 14.2405 18.8191 14.4305 18.8191Z" fill="#FF6600"/>
<path d="M3.50008 12.75H20.3301C20.7401 12.75 21.0801 12.41 21.0801 12C21.0801 11.59 20.7401 11.25 20.3301 11.25H3.50008C3.09008 11.25 2.75008 11.59 2.75008 12C2.75008 12.41 3.09008 12.75 3.50008 12.75Z" fill="#FF6600"/>
</svg>
