<svg width="24" height="24" viewBox="0 0 24 24" fill="none" xmlns="http://www.w3.org/2000/svg">
<path d="M9.56945 18.8191C9.37945 18.8191 9.18945 18.7491 9.03945 18.5991L2.96945 12.5291C2.67945 12.2391 2.67945 11.7591 2.96945 11.4691L9.03945 5.39914C9.32945 5.10914 9.80945 5.10914 10.0995 5.39914C10.3895 5.68914 10.3895 6.16914 10.0995 6.45914L4.55945 11.9991L10.0995 17.5391C10.3895 17.8291 10.3895 18.3091 10.0995 18.5991C9.95945 18.7491 9.75945 18.8191 9.56945 18.8191Z" fill="#FF6600"/>
<path d="M20.4999 12.75H3.66992C3.25992 12.75 2.91992 12.41 2.91992 12C2.91992 11.59 3.25992 11.25 3.66992 11.25H20.4999C20.9099 11.25 21.2499 11.59 21.2499 12C21.2499 12.41 20.9099 12.75 20.4999 12.75Z" fill="#FF6600"/>
</svg>
