<svg width="24" height="24" viewBox="0 0 24 24" fill="none" xmlns="http://www.w3.org/2000/svg">
<path d="M5.18891 6.37945C4.99891 6.37945 4.79891 6.29945 4.65891 6.15945C4.36891 5.86945 4.36891 5.38945 4.65891 5.09945L8.28891 1.46945C8.57891 1.17945 9.05891 1.17945 9.34891 1.46945C9.63891 1.75945 9.63891 2.23945 9.34891 2.52945L5.71891 6.15945C5.56891 6.29945 5.37891 6.37945 5.18891 6.37945Z" fill="#FF6600"/>
<path d="M18.8111 6.37945C18.6211 6.37945 18.4311 6.30945 18.2811 6.15945L14.6511 2.52945C14.3611 2.23945 14.3611 1.75945 14.6511 1.46945C14.9411 1.17945 15.4211 1.17945 15.7111 1.46945L19.3411 5.09945C19.6311 5.38945 19.6311 5.86945 19.3411 6.15945C19.2011 6.29945 19.0011 6.37945 18.8111 6.37945Z" fill="#FF6600"/>
<path d="M20.21 10.5996C20.14 10.5996 20.07 10.5996 20 10.5996H19.77H4C3.3 10.6096 2.5 10.6096 1.92 10.0296C1.46 9.57961 1.25 8.87961 1.25 7.84961C1.25 5.09961 3.26 5.09961 4.22 5.09961H19.78C20.74 5.09961 22.75 5.09961 22.75 7.84961C22.75 8.88961 22.54 9.57961 22.08 10.0296C21.56 10.5496 20.86 10.5996 20.21 10.5996ZM4.22 9.09961H20.01C20.46 9.10961 20.88 9.10961 21.02 8.96961C21.09 8.89961 21.24 8.65961 21.24 7.84961C21.24 6.71961 20.96 6.59961 19.77 6.59961H4.22C3.03 6.59961 2.75 6.71961 2.75 7.84961C2.75 8.65961 2.91 8.89961 2.97 8.96961C3.11 9.09961 3.54 9.09961 3.98 9.09961H4.22Z" fill="#FF6600"/>
<path d="M9.76172 18.3C9.35172 18.3 9.01172 17.96 9.01172 17.55V14C9.01172 13.59 9.35172 13.25 9.76172 13.25C10.1717 13.25 10.5117 13.59 10.5117 14V17.55C10.5117 17.97 10.1717 18.3 9.76172 18.3Z" fill="#FF6600"/>
<path d="M14.3594 18.3C13.9494 18.3 13.6094 17.96 13.6094 17.55V14C13.6094 13.59 13.9494 13.25 14.3594 13.25C14.7694 13.25 15.1094 13.59 15.1094 14V17.55C15.1094 17.97 14.7694 18.3 14.3594 18.3Z" fill="#FF6600"/>
<path d="M14.8907 22.7507H8.86073C5.28073 22.7507 4.48073 20.6207 4.17073 18.7707L2.76073 10.1207C2.69073 9.71073 2.97073 9.33073 3.38073 9.26073C3.79073 9.19073 4.17073 9.47073 4.24073 9.88073L5.65073 18.5207C5.94073 20.2907 6.54073 21.2507 8.86073 21.2507H14.8907C17.4607 21.2507 17.7507 20.3507 18.0807 18.6107L19.7607 9.86073C19.8407 9.45073 20.2307 9.18073 20.6407 9.27073C21.0507 9.35073 21.3107 9.74073 21.2307 10.1507L19.5507 18.9007C19.1607 20.9307 18.5107 22.7507 14.8907 22.7507Z" fill="#FF6600"/>
</svg>
