<svg width="40" height="40" viewBox="0 0 40 40" fill="none" xmlns="http://www.w3.org/2000/svg">
<path d="M13.1899 14.3799C12.9999 14.3799 12.7999 14.2999 12.6599 14.1599C12.3699 13.8699 12.3699 13.3899 12.6599 13.0999L16.2899 9.46994C16.5799 9.17994 17.0599 9.17994 17.3499 9.46994C17.6399 9.75994 17.6399 10.2399 17.3499 10.5299L13.7199 14.1599C13.5699 14.2999 13.3799 14.3799 13.1899 14.3799Z" fill="#FF6600"/>
<path d="M26.8101 14.3799C26.6201 14.3799 26.4301 14.3099 26.2801 14.1599L22.6501 10.5299C22.3601 10.2399 22.3601 9.75994 22.6501 9.46994C22.9401 9.17994 23.4201 9.17994 23.7101 9.46994L27.3401 13.0999C27.6301 13.3899 27.6301 13.8699 27.3401 14.1599C27.2001 14.2999 27.0001 14.3799 26.8101 14.3799Z" fill="#FF6600"/>
<path d="M28.21 18.6C28.14 18.6 28.07 18.6 28 18.6H27.77H12C11.3 18.61 10.5 18.61 9.92 18.03C9.46 17.58 9.25 16.88 9.25 15.85C9.25 13.1 11.26 13.1 12.22 13.1H27.78C28.74 13.1 30.75 13.1 30.75 15.85C30.75 16.89 30.54 17.58 30.08 18.03C29.56 18.55 28.86 18.6 28.21 18.6ZM12.22 17.1H28.01C28.46 17.11 28.88 17.11 29.02 16.97C29.09 16.9 29.24 16.66 29.24 15.85C29.24 14.72 28.96 14.6 27.77 14.6H12.22C11.03 14.6 10.75 14.72 10.75 15.85C10.75 16.66 10.91 16.9 10.97 16.97C11.11 17.1 11.54 17.1 11.98 17.1H12.22Z" fill="#FF6600"/>
<path d="M17.7598 26.3C17.3498 26.3 17.0098 25.96 17.0098 25.55V22C17.0098 21.59 17.3498 21.25 17.7598 21.25C18.1698 21.25 18.5098 21.59 18.5098 22V25.55C18.5098 25.97 18.1698 26.3 17.7598 26.3Z" fill="#FF6600"/>
<path d="M22.3599 26.3C21.9499 26.3 21.6099 25.96 21.6099 25.55V22C21.6099 21.59 21.9499 21.25 22.3599 21.25C22.7699 21.25 23.1099 21.59 23.1099 22V25.55C23.1099 25.97 22.7699 26.3 22.3599 26.3Z" fill="#FF6600"/>
<path d="M22.8902 30.75H16.8602C13.2802 30.75 12.4802 28.62 12.1702 26.77L10.7602 18.12C10.6902 17.71 10.9702 17.33 11.3802 17.26C11.7902 17.19 12.1702 17.47 12.2402 17.88L13.6502 26.52C13.9402 28.29 14.5402 29.25 16.8602 29.25H22.8902C25.4602 29.25 25.7502 28.35 26.0802 26.61L27.7602 17.86C27.8402 17.45 28.2302 17.18 28.6402 17.27C29.0502 17.35 29.3102 17.74 29.2302 18.15L27.5502 26.9C27.1602 28.93 26.5102 30.75 22.8902 30.75Z" fill="#FF6600"/>
<rect x="0.5" y="0.5" width="39" height="39" rx="19.5" stroke="#FF6600"/>
</svg>
