<svg width="14" height="14" viewBox="0 0 14 14" fill="none" xmlns="http://www.w3.org/2000/svg">
<path d="M7.00016 0.333374C3.32683 0.333374 0.333496 3.32671 0.333496 7.00004C0.333496 10.6734 3.32683 13.6667 7.00016 13.6667C10.6735 13.6667 13.6668 10.6734 13.6668 7.00004C13.6668 3.32671 10.6735 0.333374 7.00016 0.333374ZM10.1868 5.46671L6.40683 9.24671C6.3135 9.34004 6.18683 9.39337 6.0535 9.39337C5.92016 9.39337 5.7935 9.34004 5.70016 9.24671L3.8135 7.36004C3.62016 7.16671 3.62016 6.84671 3.8135 6.65337C4.00683 6.46004 4.32683 6.46004 4.52016 6.65337L6.0535 8.18671L9.48016 4.76004C9.6735 4.56671 9.9935 4.56671 10.1868 4.76004C10.3802 4.95337 10.3802 5.26671 10.1868 5.46671Z" fill="#FFC062"/>
</svg>
