<svg width="128" height="64" viewBox="0 0 128 64" fill="none" xmlns="http://www.w3.org/2000/svg">
<g clip-path="url(#clip0_3468_3731)">
<path fill-rule="evenodd" clip-rule="evenodd" d="M67.5234 7.24522C68.18 6.00063 68.7318 4.70233 69.1731 3.36408C69.7102 2.07037 70.2473 0.776658 68.6104 0.401481C66.4322 0.00475017 64.2068 -0.0519704 62.0116 0.233297C57.9896 0.836367 54.2364 2.63794 51.2309 5.40815C49.1808 7.33045 47.5515 9.66586 46.448 12.2639C45.3444 14.862 44.7911 17.6651 44.8236 20.4927C44.8562 23.3203 45.4738 26.1096 46.6368 28.681C47.7998 31.2524 49.4824 33.5488 51.5761 35.4223C55.4127 38.9929 55.7324 37.7122 56.6915 35.4223C58.7889 30.0275 58.3285 31.8905 55.8475 29.2383C54.6858 28.0313 53.7722 26.6033 53.1596 25.0368C52.547 23.4703 52.2475 21.7965 52.2784 20.1122C52.3093 18.4278 52.67 16.7664 53.3397 15.224C54.0094 13.6817 54.9748 12.2889 56.18 11.1264C62.2417 5.78332 66.4108 8.53894 67.5618 7.34872" fill="#FF6600"/>
<path fill-rule="evenodd" clip-rule="evenodd" d="M82.8695 29.3418L84.1483 26.004C84.0716 24.3998 86.1689 20.7516 83.6368 13.2739C82.2071 9.39271 79.6533 6.03814 76.309 3.64867C73.7513 1.82453 73.649 3.51929 71.9993 7.82736C71.0146 10.4148 72.7154 9.32807 75.1069 12.847C76.5059 14.8186 77.3206 17.1527 77.4553 19.5759C77.5901 21.9991 77.0394 24.411 75.8678 26.5289C74.6962 28.6468 72.9522 30.3831 70.8401 31.5343C68.7281 32.6855 66.3354 33.204 63.9425 33.0289C62.2928 32.8866 62.2289 32.8348 61.4999 34.7107C59.9909 38.6695 58.7376 39.8856 62.2033 40.3513C67.2843 41.0923 72.4492 39.7768 76.5775 36.6901C77.3897 36.0903 78.1589 35.4332 78.8795 34.7237C81.4372 32.2397 82.1533 30.0663 82.8439 29.3418" fill="#FF6600"/>
<path fill-rule="evenodd" clip-rule="evenodd" d="M15.7426 39.0574C18.4666 39.0574 18.3003 39.329 18.7096 38.1776L31.805 5.55019C32.0991 4.96802 31.805 5.31732 32.1886 5.12326H36.5751L22.7635 39.0444H27.2778L42.8287 0.957507L29.1578 0.879883L16.9575 31.3598L6.22799 5.1362H10.9086C11.1516 5.9383 16.267 18.9272 16.9447 20.208C17.6097 18.7461 18.2236 17.0125 18.8119 15.4859C19.2978 14.2828 19.0549 14.3604 18.5689 13.1443L15.6275 5.80893C15.0521 4.37291 14.1057 2.34178 13.7093 0.918693H0C1.36837 3.97186 2.5577 7.38726 3.83655 10.4792C5.1154 13.5712 6.45819 16.8702 7.74983 20.0527L13.5942 34.3741C13.9267 35.1633 14.2592 35.9524 14.5661 36.7416L15.3078 38.5787C15.5252 39.0574 15.3078 38.8892 15.7043 39.0703" fill="black"/>
<path fill-rule="evenodd" clip-rule="evenodd" d="M92.4219 39.6917H101.553C103.113 37.5183 107.666 29.342 108.945 27.6602C109.52 28.6046 110.223 29.6137 110.825 30.6486L114.533 36.7291C115.102 37.7886 115.784 38.782 116.567 39.6917H125.518C124.24 37.4018 113.689 20.5965 113.676 20.0661C113.664 19.5356 124.329 2.65269 125.518 0.492188H116.362C115.786 1.57891 115.083 2.74325 114.405 3.75235L106.387 16.8059C105.671 17.9314 105.044 19.0828 104.366 20.1308C103.254 21.7996 101.144 25.5385 100.248 26.7287V0.492188H92.5753L92.4219 39.6917Z" fill="black"/>
<path fill-rule="evenodd" clip-rule="evenodd" d="M11.9714 56.1083H25.4121C25.4121 53.6631 25.6295 54.2194 24.0053 54.2194H12.1504C11.8818 54.4523 11.9714 53.9219 11.9714 56.1083Z" fill="black"/>
<path d="M11.9714 56.1083H25.4121C25.4121 53.6631 25.6295 54.2194 24.0053 54.2194H12.1504C11.8818 54.4523 11.9714 53.9219 11.9714 56.1083Z" stroke="black" stroke-width="0.22" stroke-miterlimit="22.93"/>
<path fill-rule="evenodd" clip-rule="evenodd" d="M127.858 54.2197H113.791C113.791 56.4061 113.791 55.6687 113.944 56.0827H127.718C127.948 55.8369 127.858 56.5096 127.858 54.2197Z" fill="black"/>
<path d="M127.858 54.2197H113.791C113.791 56.4061 113.791 55.6687 113.944 56.0827H127.718C127.948 55.8369 127.858 56.5096 127.858 54.2197Z" stroke="black" stroke-width="0.22" stroke-miterlimit="22.93"/>
<path fill-rule="evenodd" clip-rule="evenodd" d="M31.1016 63.3148C35.6798 63.8064 45.8595 64.091 43.1995 56.8462C42.7263 55.5525 42.0485 55.4749 40.8976 54.6469C41.4272 54.2729 41.8628 53.7784 42.1693 53.2033C42.4758 52.6281 42.6446 51.9882 42.6624 51.335C42.6624 46.1601 34.6184 46.7941 31.1527 47.3504L31.1016 63.3148ZM33.2756 54.013V48.9416C36.2042 48.9416 40.3349 48.2042 40.4244 51.2574C40.5523 54.841 36.1274 54.013 33.2756 54.013ZM33.2756 61.5812V55.8759C36.2042 55.8759 41.4219 55.0738 41.3324 58.6833C41.2428 62.2928 36.4216 61.5812 33.2756 61.5812Z" fill="black"/>
<path d="M31.1016 63.3148C35.6798 63.8064 45.8595 64.091 43.1995 56.8462C42.7263 55.5525 42.0485 55.4749 40.8976 54.6469C41.4272 54.2729 41.8628 53.7784 42.1693 53.2033C42.4758 52.6281 42.6446 51.9882 42.6624 51.335C42.6624 46.1601 34.6184 46.7941 31.1527 47.3504L31.1016 63.3148ZM33.2756 54.013V48.9416C36.2042 48.9416 40.3349 48.2042 40.4244 51.2574C40.5523 54.841 36.1274 54.013 33.2756 54.013V54.013ZM33.2756 61.5812V55.8759C36.2042 55.8759 41.4219 55.0738 41.3324 58.6833C41.2428 62.2928 36.4216 61.5812 33.2756 61.5812Z" stroke="black" stroke-width="0.47" stroke-miterlimit="22.93"/>
<path fill-rule="evenodd" clip-rule="evenodd" d="M80.8367 63.4696V56.4319C83.9826 55.9532 88.7144 55.2287 89.0725 59.3686C89.1876 60.7787 89.2643 62.1371 89.405 63.4438H92.1673C91.0802 61.8008 91.3744 61.3221 91.2081 59.0451C91.2299 58.3182 91.0882 57.5957 90.7935 56.9324C90.4989 56.269 90.059 55.682 89.5073 55.2158C91.8731 53.5339 92.73 49.6399 89.5073 47.8287C87.5634 46.7161 81.297 47.1301 78.7266 47.1301V63.4438L80.8367 63.4696ZM86.86 54.4783C84.9051 54.7646 82.9195 54.7646 80.9645 54.4783C80.8451 53.5131 80.8023 52.5397 80.8367 51.5675C80.8367 48.2297 80.8367 49.1871 81.4633 48.9801C83.2281 48.9024 87.4739 48.6825 88.497 49.5881C89.827 50.7266 89.6607 54.5301 86.86 54.4783Z" fill="black"/>
<path d="M80.8367 63.4696V56.4319C83.9826 55.9532 88.7144 55.2287 89.0725 59.3686C89.1876 60.7787 89.2643 62.1371 89.405 63.4438H92.1673C91.0802 61.8008 91.3744 61.3221 91.2081 59.0451C91.2299 58.3182 91.0882 57.5957 90.7935 56.9324C90.4989 56.269 90.059 55.682 89.5073 55.2158C91.8731 53.5339 92.73 49.6399 89.5073 47.8287C87.5634 46.7161 81.297 47.1301 78.7266 47.1301V63.4438L80.8367 63.4696ZM86.86 54.4783C84.9051 54.7646 82.9195 54.7646 80.9645 54.4783C80.8451 53.5131 80.8023 52.5397 80.8367 51.5675C80.8367 48.2297 80.8367 49.1871 81.4633 48.9801C83.2281 48.9024 87.4739 48.6825 88.497 49.5881C89.827 50.7266 89.6607 54.5301 86.86 54.4783V54.4783Z" stroke="black" stroke-width="0.47" stroke-miterlimit="22.93"/>
<path fill-rule="evenodd" clip-rule="evenodd" d="M94.7754 63.4435C100.466 63.4435 107.858 64.983 108.075 55.3319C108.267 46.6252 102.269 47.1557 94.7754 47.1557V63.4435ZM97.0006 49.0186C102.525 48.4365 105.953 49.5102 105.953 55.319C105.953 61.1278 102.679 62.2921 97.0006 61.4641V49.0186Z" fill="black"/>
<path d="M94.7754 63.4435C100.466 63.4435 107.858 64.983 108.075 55.3319C108.267 46.6252 102.269 47.1557 94.7754 47.1557V63.4435ZM97.0006 49.0186C102.525 48.4365 105.953 49.5102 105.953 55.319C105.953 61.1278 102.679 62.2921 97.0006 61.4641V49.0186Z" stroke="black" stroke-width="0.47" stroke-miterlimit="22.93"/>
<path fill-rule="evenodd" clip-rule="evenodd" d="M60.7836 57.0137C61.6916 51.9682 58.9932 47.7895 54.9776 46.9486C49.5937 45.8231 46.2942 48.9668 45.4885 53.4172C43.3401 65.0476 58.8781 67.5963 60.7836 57.0137ZM47.7138 57.0137C46.064 47.686 56.9598 45.5126 58.5712 53.456C60.4639 62.8095 49.1461 65.0606 47.7138 57.0137Z" fill="black"/>
<path d="M60.7836 57.0137C61.6916 51.9682 58.9932 47.7895 54.9776 46.9486C49.5937 45.8231 46.2942 48.9668 45.4885 53.4172C43.3401 65.0476 58.8781 67.5963 60.7836 57.0137ZM47.7138 57.0137C46.064 47.686 56.9598 45.5126 58.5712 53.456C60.4639 62.8095 49.1461 65.0606 47.7138 57.0137Z" stroke="black" stroke-width="0.47" stroke-miterlimit="22.93"/>
<path fill-rule="evenodd" clip-rule="evenodd" d="M66.0528 58.709C72.447 58.709 72.9074 57.4153 74.0839 63.444H76.5649L70.8613 47.1561C67.6769 47.1561 68.4187 46.7939 66.8457 51.0373C66.2702 52.5639 65.8354 53.7282 65.2983 55.2289C64.3391 57.9328 63.1242 60.6237 62.293 63.4828H64.4286L66.0528 58.709ZM69.0581 50.4939C69.1823 50.2408 69.3514 50.0128 69.5568 49.8212L71.7437 56.7684L66.884 56.6391L69.0581 50.4939Z" fill="black"/>
<path d="M66.0528 58.709C72.447 58.709 72.9074 57.4153 74.0839 63.444H76.5649L70.8613 47.1561C67.6769 47.1561 68.4187 46.7939 66.8457 51.0373C66.2702 52.5639 65.8354 53.7282 65.2983 55.2289C64.3391 57.9328 63.1242 60.6237 62.293 63.4828H64.4286L66.0528 58.709ZM69.0581 50.4939C69.1823 50.2408 69.3514 50.0128 69.5568 49.8212L71.7437 56.7684L66.884 56.6391L69.0581 50.4939Z" stroke="black" stroke-width="0.47" stroke-miterlimit="22.93"/>
</g>
<defs>
<clipPath id="clip0_3468_3731">
<rect width="128" height="64" fill="white"/>
</clipPath>
</defs>
</svg>
