<svg width="499" height="40" viewBox="0 0 499 40" fill="none" xmlns="http://www.w3.org/2000/svg">
<rect width="499" height="40" rx="20" fill="#FFEDD2"/>
<path d="M45.7585 23.92L39.3585 12.4C38.4985 10.85 37.3085 10 35.9985 10C34.6885 10 33.4985 10.85 32.6385 12.4L26.2385 23.92C25.4285 25.39 25.3385 26.8 25.9885 27.91C26.6385 29.02 27.9185 29.63 29.5985 29.63H42.3985C44.0785 29.63 45.3585 29.02 46.0085 27.91C46.6585 26.8 46.5685 25.38 45.7585 23.92ZM35.2485 17C35.2485 16.59 35.5885 16.25 35.9985 16.25C36.4085 16.25 36.7485 16.59 36.7485 17V22C36.7485 22.41 36.4085 22.75 35.9985 22.75C35.5885 22.75 35.2485 22.41 35.2485 22V17ZM36.7085 25.71C36.6585 25.75 36.6085 25.79 36.5585 25.83C36.4985 25.87 36.4385 25.9 36.3785 25.92C36.3185 25.95 36.2585 25.97 36.1885 25.98C36.1285 25.99 36.0585 26 35.9985 26C35.9385 26 35.8685 25.99 35.7985 25.98C35.7385 25.97 35.6785 25.95 35.6185 25.92C35.5585 25.9 35.4985 25.87 35.4385 25.83C35.3885 25.79 35.3385 25.75 35.2885 25.71C35.1085 25.52 34.9985 25.26 34.9985 25C34.9985 24.74 35.1085 24.48 35.2885 24.29C35.3385 24.25 35.3885 24.21 35.4385 24.17C35.4985 24.13 35.5585 24.1 35.6185 24.08C35.6785 24.05 35.7385 24.03 35.7985 24.02C35.9285 23.99 36.0685 23.99 36.1885 24.02C36.2585 24.03 36.3185 24.05 36.3785 24.08C36.4385 24.1 36.4985 24.13 36.5585 24.17C36.6085 24.21 36.6585 24.25 36.7085 24.29C36.8885 24.48 36.9985 24.74 36.9985 25C36.9985 25.26 36.8885 25.52 36.7085 25.71Z" fill="#E19603"/>
<path d="M57.6442 27H59.8202V22.6H62.0922C62.9029 22.6 63.6175 22.456 64.2362 22.168C64.8549 21.8693 65.3402 21.4373 65.6922 20.872C66.0549 20.3067 66.2362 19.6293 66.2362 18.84C66.2362 18.0293 66.0602 17.3467 65.7082 16.792C65.3562 16.2373 64.8655 15.816 64.2362 15.528C63.6175 15.2293 62.9029 15.08 62.0922 15.08H57.6442V27ZM59.8202 20.68V17H62.1242C62.7109 17 63.1802 17.1653 63.5322 17.496C63.8842 17.8267 64.0602 18.2747 64.0602 18.84C64.0602 19.3947 63.8842 19.8427 63.5322 20.184C63.1802 20.5147 62.7109 20.68 62.1242 20.68H59.8202ZM67.8432 27H69.9392V14.888H67.8432V27ZM76.0024 27.192C76.8878 27.192 77.6611 26.9947 78.3224 26.6C78.9944 26.1947 79.4638 25.6827 79.7304 25.064L78.0344 24.232C77.8424 24.5627 77.5758 24.8347 77.2344 25.048C76.9038 25.2507 76.4984 25.352 76.0184 25.352C75.3891 25.352 74.8611 25.16 74.4344 24.776C74.0078 24.392 73.7624 23.88 73.6984 23.24H79.9704C80.0131 23.1227 80.0398 22.9893 80.0504 22.84C80.0718 22.68 80.0824 22.52 80.0824 22.36C80.0824 21.5813 79.9171 20.872 79.5864 20.232C79.2558 19.592 78.7758 19.08 78.1464 18.696C77.5171 18.3013 76.7491 18.104 75.8424 18.104C75.0318 18.104 74.2958 18.3013 73.6344 18.696C72.9838 19.0907 72.4664 19.6293 72.0824 20.312C71.7091 20.984 71.5224 21.7573 71.5224 22.632C71.5224 23.4747 71.7091 24.2427 72.0824 24.936C72.4558 25.6293 72.9784 26.1787 73.6504 26.584C74.3224 26.9893 75.1064 27.192 76.0024 27.192ZM75.8424 19.832C76.3971 19.832 76.8558 20.0027 77.2184 20.344C77.5918 20.6747 77.7998 21.1067 77.8424 21.64H73.7464C73.8638 21.064 74.1091 20.6213 74.4824 20.312C74.8664 19.992 75.3198 19.832 75.8424 19.832ZM84.2644 27.192C85.3951 27.192 86.3018 26.8187 86.9844 26.072V27H88.9684V21.208C88.9684 20.6 88.8138 20.0613 88.5044 19.592C88.1951 19.1227 87.7684 18.76 87.2244 18.504C86.6911 18.2373 86.0671 18.104 85.3524 18.104C84.4778 18.104 83.6991 18.312 83.0164 18.728C82.3338 19.144 81.8644 19.6933 81.6084 20.376L83.3204 21.208C83.4804 20.8133 83.7311 20.4987 84.0724 20.264C84.4138 20.0187 84.8138 19.896 85.2724 19.896C85.7524 19.896 86.1364 20.024 86.4244 20.28C86.7231 20.5253 86.8724 20.8347 86.8724 21.208V21.496L84.2804 21.912C83.2564 22.0827 82.4991 22.408 82.0084 22.888C81.5178 23.368 81.2724 23.9707 81.2724 24.696C81.2724 25.464 81.5444 26.072 82.0884 26.52C82.6324 26.968 83.3578 27.192 84.2644 27.192ZM83.4484 24.616C83.4484 24.008 83.8591 23.624 84.6804 23.464L86.8724 23.096V23.448C86.8724 24.0453 86.6644 24.552 86.2484 24.968C85.8431 25.384 85.3098 25.592 84.6484 25.592C84.2964 25.592 84.0084 25.5067 83.7844 25.336C83.5604 25.1547 83.4484 24.9147 83.4484 24.616ZM94.2177 27.192C94.879 27.192 95.455 27.08 95.9457 26.856C96.4364 26.632 96.8204 26.3227 97.0977 25.928C97.375 25.5227 97.5137 25.0587 97.5137 24.536C97.5137 23.928 97.3217 23.4053 96.9377 22.968C96.5537 22.5307 95.999 22.2107 95.2737 22.008L93.8817 21.592C93.583 21.5067 93.3377 21.3947 93.1457 21.256C92.9537 21.1173 92.8577 20.9253 92.8577 20.68C92.8577 20.424 92.959 20.216 93.1617 20.056C93.3644 19.896 93.6417 19.816 93.9937 19.816C94.431 19.816 94.8257 19.9333 95.1777 20.168C95.5404 20.4027 95.791 20.7173 95.9297 21.112L97.5297 20.36C97.263 19.656 96.815 19.1067 96.1857 18.712C95.5564 18.3067 94.831 18.104 94.0097 18.104C93.3804 18.104 92.8204 18.216 92.3297 18.44C91.8497 18.664 91.471 18.9787 91.1937 19.384C90.927 19.7787 90.7937 20.2427 90.7937 20.776C90.7937 21.3733 90.9804 21.8907 91.3537 22.328C91.7377 22.7653 92.2977 23.0907 93.0337 23.304L94.4577 23.704C94.735 23.7787 94.9697 23.8907 95.1617 24.04C95.3644 24.1787 95.4657 24.3707 95.4657 24.616C95.4657 24.904 95.3484 25.1333 95.1137 25.304C94.8897 25.464 94.591 25.544 94.2177 25.544C93.727 25.544 93.2844 25.4053 92.8897 25.128C92.495 24.8507 92.1804 24.4667 91.9457 23.976L90.3777 24.728C90.6337 25.4747 91.103 26.072 91.7857 26.52C92.479 26.968 93.2897 27.192 94.2177 27.192ZM103.252 27.192C104.138 27.192 104.911 26.9947 105.572 26.6C106.244 26.1947 106.714 25.6827 106.98 25.064L105.284 24.232C105.092 24.5627 104.826 24.8347 104.484 25.048C104.154 25.2507 103.748 25.352 103.268 25.352C102.639 25.352 102.111 25.16 101.684 24.776C101.258 24.392 101.012 23.88 100.948 23.24H107.22C107.263 23.1227 107.29 22.9893 107.3 22.84C107.322 22.68 107.332 22.52 107.332 22.36C107.332 21.5813 107.167 20.872 106.836 20.232C106.506 19.592 106.026 19.08 105.396 18.696C104.767 18.3013 103.999 18.104 103.092 18.104C102.282 18.104 101.546 18.3013 100.884 18.696C100.234 19.0907 99.7164 19.6293 99.3324 20.312C98.9591 20.984 98.7724 21.7573 98.7724 22.632C98.7724 23.4747 98.9591 24.2427 99.3324 24.936C99.7058 25.6293 100.228 26.1787 100.9 26.584C101.572 26.9893 102.356 27.192 103.252 27.192ZM103.092 19.832C103.647 19.832 104.106 20.0027 104.468 20.344C104.842 20.6747 105.05 21.1067 105.092 21.64H100.996C101.114 21.064 101.359 20.6213 101.732 20.312C102.116 19.992 102.57 19.832 103.092 19.832ZM115.733 27.096C116.085 27.096 116.432 27.0693 116.773 27.016V25.208C116.57 25.24 116.384 25.256 116.213 25.256C115.701 25.256 115.328 25.1387 115.093 24.904C114.858 24.6693 114.741 24.3333 114.741 23.896V20.168H116.741V18.296H114.741V16.312H112.645V16.984C112.645 17.4107 112.528 17.736 112.293 17.96C112.058 18.184 111.728 18.296 111.301 18.296H111.141V20.168H112.645V24.008C112.645 24.9787 112.912 25.736 113.445 26.28C113.989 26.824 114.752 27.096 115.733 27.096ZM118.374 17.32H120.47V15.08H118.374V17.32ZM118.374 27H120.47V18.296H118.374V27ZM126.63 30.52C127.462 30.52 128.198 30.3493 128.838 30.008C129.478 29.6667 129.979 29.1973 130.342 28.6C130.704 28.0027 130.886 27.3253 130.886 26.568V18.296H128.902V19.304C128.24 18.504 127.35 18.104 126.23 18.104C125.43 18.104 124.715 18.2907 124.086 18.664C123.456 19.0267 122.96 19.528 122.598 20.168C122.235 20.808 122.054 21.5387 122.054 22.36C122.054 23.1707 122.235 23.9013 122.598 24.552C122.96 25.2027 123.462 25.7147 124.102 26.088C124.742 26.4613 125.467 26.648 126.278 26.648C127.334 26.648 128.171 26.3067 128.79 25.624V26.568C128.79 27.208 128.587 27.704 128.182 28.056C127.776 28.4187 127.259 28.6 126.63 28.6C126.075 28.6 125.606 28.472 125.222 28.216C124.848 27.9707 124.598 27.6453 124.47 27.24L122.518 27.976C122.795 28.744 123.302 29.3573 124.038 29.816C124.784 30.2853 125.648 30.52 126.63 30.52ZM126.534 24.712C125.862 24.712 125.307 24.4933 124.87 24.056C124.443 23.608 124.23 23.048 124.23 22.376C124.23 21.928 124.326 21.528 124.518 21.176C124.72 20.8133 124.998 20.5307 125.35 20.328C125.702 20.1253 126.096 20.024 126.534 20.024C127.195 20.024 127.734 20.248 128.15 20.696C128.576 21.1333 128.79 21.6933 128.79 22.376C128.79 23.0587 128.576 23.6187 128.15 24.056C127.734 24.4933 127.195 24.712 126.534 24.712ZM132.843 27H134.939V21.896C134.939 21.3307 135.105 20.8773 135.435 20.536C135.766 20.1947 136.187 20.024 136.699 20.024C137.211 20.024 137.633 20.1947 137.963 20.536C138.294 20.8667 138.459 21.32 138.459 21.896V27H140.555V21.4C140.555 20.7493 140.417 20.1787 140.139 19.688C139.862 19.1867 139.473 18.7973 138.971 18.52C138.481 18.2427 137.915 18.104 137.275 18.104C136.774 18.104 136.321 18.1947 135.915 18.376C135.51 18.5467 135.185 18.808 134.939 19.16V14.888H132.843V27ZM146.296 27.096C146.648 27.096 146.994 27.0693 147.336 27.016V25.208C147.133 25.24 146.946 25.256 146.776 25.256C146.264 25.256 145.89 25.1387 145.656 24.904C145.421 24.6693 145.304 24.3333 145.304 23.896V20.168H147.304V18.296H145.304V16.312H143.208V16.984C143.208 17.4107 143.09 17.736 142.856 17.96C142.621 18.184 142.29 18.296 141.864 18.296H141.704V20.168H143.208V24.008C143.208 24.9787 143.474 25.736 144.008 26.28C144.552 26.824 145.314 27.096 146.296 27.096ZM152.987 27.192C153.872 27.192 154.645 26.9947 155.307 26.6C155.979 26.1947 156.448 25.6827 156.715 25.064L155.019 24.232C154.827 24.5627 154.56 24.8347 154.219 25.048C153.888 25.2507 153.483 25.352 153.003 25.352C152.373 25.352 151.845 25.16 151.419 24.776C150.992 24.392 150.747 23.88 150.683 23.24H156.955C156.997 23.1227 157.024 22.9893 157.035 22.84C157.056 22.68 157.067 22.52 157.067 22.36C157.067 21.5813 156.901 20.872 156.571 20.232C156.24 19.592 155.76 19.08 155.131 18.696C154.501 18.3013 153.733 18.104 152.827 18.104C152.016 18.104 151.28 18.3013 150.619 18.696C149.968 19.0907 149.451 19.6293 149.067 20.312C148.693 20.984 148.507 21.7573 148.507 22.632C148.507 23.4747 148.693 24.2427 149.067 24.936C149.44 25.6293 149.963 26.1787 150.635 26.584C151.307 26.9893 152.091 27.192 152.987 27.192ZM152.827 19.832C153.381 19.832 153.84 20.0027 154.203 20.344C154.576 20.6747 154.784 21.1067 154.827 21.64H150.731C150.848 21.064 151.093 20.6213 151.467 20.312C151.851 19.992 152.304 19.832 152.827 19.832ZM158.656 27H160.752V21.896C160.752 21.3307 160.912 20.8773 161.232 20.536C161.562 20.1947 161.989 20.024 162.512 20.024C163.034 20.024 163.456 20.1947 163.776 20.536C164.106 20.8667 164.272 21.32 164.272 21.896V27H166.368V21.4C166.368 20.7493 166.229 20.1787 165.952 19.688C165.674 19.1867 165.285 18.7973 164.784 18.52C164.293 18.2427 163.728 18.104 163.088 18.104C162.544 18.104 162.053 18.2107 161.616 18.424C161.189 18.6373 160.858 18.952 160.624 19.368V18.296H158.656V27ZM174.952 27.096C175.304 27.096 175.65 27.0693 175.992 27.016V25.208C175.789 25.24 175.602 25.256 175.432 25.256C174.92 25.256 174.546 25.1387 174.312 24.904C174.077 24.6693 173.96 24.3333 173.96 23.896V20.168H175.96V18.296H173.96V16.312H171.864V16.984C171.864 17.4107 171.746 17.736 171.512 17.96C171.277 18.184 170.946 18.296 170.52 18.296H170.36V20.168H171.864V24.008C171.864 24.9787 172.13 25.736 172.664 26.28C173.208 26.824 173.97 27.096 174.952 27.096ZM177.593 27H179.689V21.896C179.689 21.3307 179.855 20.8773 180.185 20.536C180.516 20.1947 180.937 20.024 181.449 20.024C181.961 20.024 182.383 20.1947 182.713 20.536C183.044 20.8667 183.209 21.32 183.209 21.896V27H185.305V21.4C185.305 20.7493 185.167 20.1787 184.889 19.688C184.612 19.1867 184.223 18.7973 183.721 18.52C183.231 18.2427 182.665 18.104 182.025 18.104C181.524 18.104 181.071 18.1947 180.665 18.376C180.26 18.5467 179.935 18.808 179.689 19.16V14.888H177.593V27ZM191.206 27.192C192.091 27.192 192.864 26.9947 193.526 26.6C194.198 26.1947 194.667 25.6827 194.934 25.064L193.238 24.232C193.046 24.5627 192.779 24.8347 192.438 25.048C192.107 25.2507 191.702 25.352 191.222 25.352C190.592 25.352 190.064 25.16 189.638 24.776C189.211 24.392 188.966 23.88 188.902 23.24H195.174C195.216 23.1227 195.243 22.9893 195.254 22.84C195.275 22.68 195.286 22.52 195.286 22.36C195.286 21.5813 195.12 20.872 194.79 20.232C194.459 19.592 193.979 19.08 193.35 18.696C192.72 18.3013 191.952 18.104 191.046 18.104C190.235 18.104 189.499 18.3013 188.838 18.696C188.187 19.0907 187.67 19.6293 187.286 20.312C186.912 20.984 186.726 21.7573 186.726 22.632C186.726 23.4747 186.912 24.2427 187.286 24.936C187.659 25.6293 188.182 26.1787 188.854 26.584C189.526 26.9893 190.31 27.192 191.206 27.192ZM191.046 19.832C191.6 19.832 192.059 20.0027 192.422 20.344C192.795 20.6747 193.003 21.1067 193.046 21.64H188.95C189.067 21.064 189.312 20.6213 189.686 20.312C190.07 19.992 190.523 19.832 191.046 19.832ZM203.686 27.096C204.038 27.096 204.385 27.0693 204.726 27.016V25.208C204.524 25.24 204.337 25.256 204.166 25.256C203.654 25.256 203.281 25.1387 203.046 24.904C202.812 24.6693 202.694 24.3333 202.694 23.896V20.168H204.694V18.296H202.694V16.312H200.598V16.984C200.598 17.4107 200.481 17.736 200.246 17.96C200.012 18.184 199.681 18.296 199.254 18.296H199.094V20.168H200.598V24.008C200.598 24.9787 200.865 25.736 201.398 26.28C201.942 26.824 202.705 27.096 203.686 27.096ZM206.328 27H208.424V22.152C208.424 21.4907 208.605 20.9787 208.968 20.616C209.341 20.2427 209.821 20.056 210.408 20.056H211.16V18.2H210.648C210.114 18.2 209.645 18.296 209.24 18.488C208.834 18.68 208.52 19.0267 208.296 19.528V18.296H206.328V27ZM215.416 27.192C215.96 27.192 216.44 27.0907 216.856 26.888C217.283 26.6747 217.619 26.3653 217.864 25.96V27H219.848V18.296H217.752V23.4C217.752 23.976 217.587 24.4347 217.256 24.776C216.925 25.1067 216.504 25.272 215.992 25.272C215.469 25.272 215.043 25.1067 214.712 24.776C214.392 24.4453 214.232 24.0027 214.232 23.448V18.296H212.136V23.624C212.136 24.6907 212.424 25.5547 213 26.216C213.587 26.8667 214.392 27.192 215.416 27.192ZM225.988 27.192C226.618 27.192 227.199 27.0853 227.732 26.872C228.266 26.648 228.724 26.344 229.108 25.96C229.492 25.5653 229.77 25.1227 229.94 24.632L228.1 23.8C227.93 24.2587 227.658 24.6213 227.284 24.888C226.922 25.144 226.49 25.272 225.988 25.272C225.53 25.272 225.119 25.16 224.756 24.936C224.404 24.712 224.127 24.4027 223.924 24.008C223.722 23.6027 223.62 23.1493 223.62 22.648C223.62 22.136 223.722 21.6827 223.924 21.288C224.127 20.8933 224.404 20.584 224.756 20.36C225.119 20.136 225.53 20.024 225.988 20.024C226.49 20.024 226.922 20.1573 227.284 20.424C227.658 20.6907 227.93 21.0427 228.1 21.48L229.94 20.68C229.759 20.168 229.476 19.72 229.092 19.336C228.708 18.9413 228.25 18.6373 227.716 18.424C227.183 18.2107 226.607 18.104 225.988 18.104C225.124 18.104 224.346 18.3013 223.652 18.696C222.97 19.0907 222.431 19.6293 222.036 20.312C221.642 20.9947 221.444 21.768 221.444 22.632C221.444 23.496 221.642 24.2747 222.036 24.968C222.431 25.6507 222.97 26.1947 223.652 26.6C224.346 26.9947 225.124 27.192 225.988 27.192ZM231.531 27H233.627V24.344L234.747 23.128L237.195 27H239.595L236.315 21.8L239.531 18.296H236.923L233.627 21.752V14.888H231.531V27ZM244.077 27.192C244.738 27.192 245.314 27.08 245.805 26.856C246.296 26.632 246.68 26.3227 246.957 25.928C247.234 25.5227 247.373 25.0587 247.373 24.536C247.373 23.928 247.181 23.4053 246.797 22.968C246.413 22.5307 245.858 22.2107 245.133 22.008L243.741 21.592C243.442 21.5067 243.197 21.3947 243.005 21.256C242.813 21.1173 242.717 20.9253 242.717 20.68C242.717 20.424 242.818 20.216 243.021 20.056C243.224 19.896 243.501 19.816 243.853 19.816C244.29 19.816 244.685 19.9333 245.037 20.168C245.4 20.4027 245.65 20.7173 245.789 21.112L247.389 20.36C247.122 19.656 246.674 19.1067 246.045 18.712C245.416 18.3067 244.69 18.104 243.869 18.104C243.24 18.104 242.68 18.216 242.189 18.44C241.709 18.664 241.33 18.9787 241.053 19.384C240.786 19.7787 240.653 20.2427 240.653 20.776C240.653 21.3733 240.84 21.8907 241.213 22.328C241.597 22.7653 242.157 23.0907 242.893 23.304L244.317 23.704C244.594 23.7787 244.829 23.8907 245.021 24.04C245.224 24.1787 245.325 24.3707 245.325 24.616C245.325 24.904 245.208 25.1333 244.973 25.304C244.749 25.464 244.45 25.544 244.077 25.544C243.586 25.544 243.144 25.4053 242.749 25.128C242.354 24.8507 242.04 24.4667 241.805 23.976L240.237 24.728C240.493 25.4747 240.962 26.072 241.645 26.52C242.338 26.968 243.149 27.192 244.077 27.192ZM251.828 17.32H253.924V15.08H251.828V17.32ZM251.828 27H253.924V18.296H251.828V27ZM256.867 27H258.963V20.168H260.899V18.296H258.963V18.008C258.963 17.5707 259.091 17.2507 259.347 17.048C259.613 16.8347 259.976 16.728 260.435 16.728C260.605 16.728 260.787 16.744 260.979 16.776V14.968C260.733 14.9147 260.461 14.888 260.163 14.888C259.16 14.888 258.36 15.16 257.763 15.704C257.165 16.248 256.867 17.016 256.867 18.008V18.296H255.331V20.168H256.867V27ZM266.259 30.536C267.08 30.536 267.763 30.3013 268.307 29.832C268.861 29.3733 269.304 28.7227 269.635 27.88L273.427 18.296H271.155L268.915 24.296L266.659 18.296H264.403L267.843 27L267.651 27.464C267.48 27.8267 267.283 28.12 267.059 28.344C266.845 28.568 266.499 28.68 266.019 28.68C265.848 28.68 265.667 28.664 265.475 28.632C265.283 28.6107 265.112 28.5787 264.963 28.536V30.296C265.144 30.3813 265.347 30.44 265.571 30.472C265.795 30.5147 266.024 30.536 266.259 30.536ZM278.677 27.192C279.52 27.192 280.288 27 280.981 26.616C281.675 26.2213 282.229 25.6827 282.645 25C283.061 24.3067 283.269 23.5227 283.269 22.648C283.269 21.7733 283.061 20.9947 282.645 20.312C282.24 19.6293 281.691 19.0907 280.997 18.696C280.304 18.3013 279.531 18.104 278.677 18.104C277.813 18.104 277.035 18.3013 276.341 18.696C275.648 19.0907 275.093 19.6293 274.677 20.312C274.272 20.9947 274.069 21.7733 274.069 22.648C274.069 23.5227 274.272 24.3013 274.677 24.984C275.093 25.6667 275.648 26.2053 276.341 26.6C277.045 26.9947 277.824 27.192 278.677 27.192ZM278.677 25.272C278.208 25.272 277.787 25.16 277.413 24.936C277.051 24.712 276.763 24.4027 276.549 24.008C276.347 23.6027 276.245 23.1493 276.245 22.648C276.245 22.1467 276.347 21.6987 276.549 21.304C276.763 20.9093 277.051 20.6 277.413 20.376C277.787 20.1413 278.208 20.024 278.677 20.024C279.147 20.024 279.557 20.1413 279.909 20.376C280.272 20.6 280.555 20.9093 280.757 21.304C280.971 21.6987 281.077 22.1467 281.077 22.648C281.077 23.1493 280.971 23.6027 280.757 24.008C280.555 24.4027 280.272 24.712 279.909 24.936C279.557 25.16 279.147 25.272 278.677 25.272ZM287.963 27.192C288.507 27.192 288.987 27.0907 289.403 26.888C289.829 26.6747 290.165 26.3653 290.411 25.96V27H292.395V18.296H290.299V23.4C290.299 23.976 290.133 24.4347 289.803 24.776C289.472 25.1067 289.051 25.272 288.539 25.272C288.016 25.272 287.589 25.1067 287.259 24.776C286.939 24.4453 286.779 24.0027 286.779 23.448V18.296H284.683V23.624C284.683 24.6907 284.971 25.5547 285.547 26.216C286.133 26.8667 286.939 27.192 287.963 27.192ZM299.379 27H301.235L303.283 21.128L305.299 27H307.171L310.163 18.296H307.955L306.131 23.768L304.211 18.296H302.355L300.419 23.784L298.595 18.296H296.387L299.379 27ZM313.639 27.192C314.77 27.192 315.677 26.8187 316.359 26.072V27H318.343V21.208C318.343 20.6 318.189 20.0613 317.879 19.592C317.57 19.1227 317.143 18.76 316.599 18.504C316.066 18.2373 315.442 18.104 314.727 18.104C313.853 18.104 313.074 18.312 312.391 18.728C311.709 19.144 311.239 19.6933 310.983 20.376L312.695 21.208C312.855 20.8133 313.106 20.4987 313.447 20.264C313.789 20.0187 314.189 19.896 314.647 19.896C315.127 19.896 315.511 20.024 315.799 20.28C316.098 20.5253 316.247 20.8347 316.247 21.208V21.496L313.655 21.912C312.631 22.0827 311.874 22.408 311.383 22.888C310.893 23.368 310.647 23.9707 310.647 24.696C310.647 25.464 310.919 26.072 311.463 26.52C312.007 26.968 312.733 27.192 313.639 27.192ZM312.823 24.616C312.823 24.008 313.234 23.624 314.055 23.464L316.247 23.096V23.448C316.247 24.0453 316.039 24.552 315.623 24.968C315.218 25.384 314.685 25.592 314.023 25.592C313.671 25.592 313.383 25.5067 313.159 25.336C312.935 25.1547 312.823 24.9147 312.823 24.616ZM320.281 27H322.377V21.896C322.377 21.3307 322.537 20.8773 322.857 20.536C323.187 20.1947 323.614 20.024 324.137 20.024C324.659 20.024 325.081 20.1947 325.401 20.536C325.731 20.8667 325.897 21.32 325.897 21.896V27H327.993V21.4C327.993 20.7493 327.854 20.1787 327.577 19.688C327.299 19.1867 326.91 18.7973 326.409 18.52C325.918 18.2427 325.353 18.104 324.713 18.104C324.169 18.104 323.678 18.2107 323.241 18.424C322.814 18.6373 322.483 18.952 322.249 19.368V18.296H320.281V27ZM333.733 27.096C334.085 27.096 334.432 27.0693 334.773 27.016V25.208C334.57 25.24 334.384 25.256 334.213 25.256C333.701 25.256 333.328 25.1387 333.093 24.904C332.858 24.6693 332.741 24.3333 332.741 23.896V20.168H334.741V18.296H332.741V16.312H330.645V16.984C330.645 17.4107 330.528 17.736 330.293 17.96C330.058 18.184 329.728 18.296 329.301 18.296H329.141V20.168H330.645V24.008C330.645 24.9787 330.912 25.736 331.445 26.28C331.989 26.824 332.752 27.096 333.733 27.096ZM343.186 27.096C343.538 27.096 343.885 27.0693 344.226 27.016V25.208C344.024 25.24 343.837 25.256 343.666 25.256C343.154 25.256 342.781 25.1387 342.546 24.904C342.312 24.6693 342.194 24.3333 342.194 23.896V20.168H344.194V18.296H342.194V16.312H340.098V16.984C340.098 17.4107 339.981 17.736 339.746 17.96C339.512 18.184 339.181 18.296 338.754 18.296H338.594V20.168H340.098V24.008C340.098 24.9787 340.365 25.736 340.898 26.28C341.442 26.824 342.205 27.096 343.186 27.096ZM350.005 27.192C350.848 27.192 351.616 27 352.309 26.616C353.003 26.2213 353.557 25.6827 353.973 25C354.389 24.3067 354.597 23.5227 354.597 22.648C354.597 21.7733 354.389 20.9947 353.973 20.312C353.568 19.6293 353.019 19.0907 352.325 18.696C351.632 18.3013 350.859 18.104 350.005 18.104C349.141 18.104 348.363 18.3013 347.669 18.696C346.976 19.0907 346.421 19.6293 346.005 20.312C345.6 20.9947 345.397 21.7733 345.397 22.648C345.397 23.5227 345.6 24.3013 346.005 24.984C346.421 25.6667 346.976 26.2053 347.669 26.6C348.373 26.9947 349.152 27.192 350.005 27.192ZM350.005 25.272C349.536 25.272 349.115 25.16 348.741 24.936C348.379 24.712 348.091 24.4027 347.877 24.008C347.675 23.6027 347.573 23.1493 347.573 22.648C347.573 22.1467 347.675 21.6987 347.877 21.304C348.091 20.9093 348.379 20.6 348.741 20.376C349.115 20.1413 349.536 20.024 350.005 20.024C350.475 20.024 350.885 20.1413 351.237 20.376C351.6 20.6 351.883 20.9093 352.085 21.304C352.299 21.6987 352.405 22.1467 352.405 22.648C352.405 23.1493 352.299 23.6027 352.085 24.008C351.883 24.4027 351.6 24.712 351.237 24.936C350.885 25.16 350.475 25.272 350.005 25.272ZM362.999 27.096C363.351 27.096 363.697 27.0693 364.039 27.016V25.208C363.836 25.24 363.649 25.256 363.479 25.256C362.967 25.256 362.593 25.1387 362.359 24.904C362.124 24.6693 362.007 24.3333 362.007 23.896V20.168H364.007V18.296H362.007V16.312H359.911V16.984C359.911 17.4107 359.793 17.736 359.559 17.96C359.324 18.184 358.993 18.296 358.567 18.296H358.407V20.168H359.911V24.008C359.911 24.9787 360.177 25.736 360.711 26.28C361.255 26.824 362.017 27.096 362.999 27.096ZM365.64 27H367.736V22.152C367.736 21.4907 367.917 20.9787 368.28 20.616C368.653 20.2427 369.133 20.056 369.72 20.056H370.472V18.2H369.96C369.427 18.2 368.957 18.296 368.552 18.488C368.147 18.68 367.832 19.0267 367.608 19.528V18.296H365.64V27ZM372.68 30.536C373.502 30.536 374.184 30.3013 374.728 29.832C375.283 29.3733 375.726 28.7227 376.056 27.88L379.848 18.296H377.576L375.336 24.296L373.08 18.296H370.824L374.264 27L374.072 27.464C373.902 27.8267 373.704 28.12 373.48 28.344C373.267 28.568 372.92 28.68 372.44 28.68C372.27 28.68 372.088 28.664 371.896 28.632C371.704 28.6107 371.534 28.5787 371.384 28.536V30.296C371.566 30.3813 371.768 30.44 371.992 30.472C372.216 30.5147 372.446 30.536 372.68 30.536ZM383.843 27H385.939V21.896C385.939 21.3307 386.105 20.8773 386.435 20.536C386.766 20.1947 387.187 20.024 387.699 20.024C388.211 20.024 388.633 20.1947 388.963 20.536C389.294 20.8667 389.459 21.32 389.459 21.896V27H391.555V21.4C391.555 20.7493 391.417 20.1787 391.139 19.688C390.862 19.1867 390.473 18.7973 389.971 18.52C389.481 18.2427 388.915 18.104 388.275 18.104C387.774 18.104 387.321 18.1947 386.915 18.376C386.51 18.5467 386.185 18.808 385.939 19.16V14.888H383.843V27ZM393.328 17.32H395.424V15.08H393.328V17.32ZM393.328 27H395.424V18.296H393.328V27ZM401.583 30.52C402.415 30.52 403.151 30.3493 403.791 30.008C404.431 29.6667 404.932 29.1973 405.295 28.6C405.657 28.0027 405.839 27.3253 405.839 26.568V18.296H403.855V19.304C403.193 18.504 402.303 18.104 401.183 18.104C400.383 18.104 399.668 18.2907 399.039 18.664C398.409 19.0267 397.913 19.528 397.551 20.168C397.188 20.808 397.007 21.5387 397.007 22.36C397.007 23.1707 397.188 23.9013 397.551 24.552C397.913 25.2027 398.415 25.7147 399.055 26.088C399.695 26.4613 400.42 26.648 401.231 26.648C402.287 26.648 403.124 26.3067 403.743 25.624V26.568C403.743 27.208 403.54 27.704 403.135 28.056C402.729 28.4187 402.212 28.6 401.583 28.6C401.028 28.6 400.559 28.472 400.175 28.216C399.801 27.9707 399.551 27.6453 399.423 27.24L397.471 27.976C397.748 28.744 398.255 29.3573 398.991 29.816C399.737 30.2853 400.601 30.52 401.583 30.52ZM401.487 24.712C400.815 24.712 400.26 24.4933 399.823 24.056C399.396 23.608 399.183 23.048 399.183 22.376C399.183 21.928 399.279 21.528 399.471 21.176C399.673 20.8133 399.951 20.5307 400.303 20.328C400.655 20.1253 401.049 20.024 401.487 20.024C402.148 20.024 402.687 20.248 403.103 20.696C403.529 21.1333 403.743 21.6933 403.743 22.376C403.743 23.0587 403.529 23.6187 403.103 24.056C402.687 24.4933 402.148 24.712 401.487 24.712ZM407.796 27H409.892V21.896C409.892 21.3307 410.058 20.8773 410.388 20.536C410.719 20.1947 411.14 20.024 411.652 20.024C412.164 20.024 412.586 20.1947 412.916 20.536C413.247 20.8667 413.412 21.32 413.412 21.896V27H415.508V21.4C415.508 20.7493 415.37 20.1787 415.092 19.688C414.815 19.1867 414.426 18.7973 413.924 18.52C413.434 18.2427 412.868 18.104 412.228 18.104C411.727 18.104 411.274 18.1947 410.868 18.376C410.463 18.5467 410.138 18.808 409.892 19.16V14.888H407.796V27ZM423.436 27.192C424.098 27.192 424.674 27.08 425.164 26.856C425.655 26.632 426.039 26.3227 426.316 25.928C426.594 25.5227 426.732 25.0587 426.732 24.536C426.732 23.928 426.54 23.4053 426.156 22.968C425.772 22.5307 425.218 22.2107 424.492 22.008L423.1 21.592C422.802 21.5067 422.556 21.3947 422.364 21.256C422.172 21.1173 422.076 20.9253 422.076 20.68C422.076 20.424 422.178 20.216 422.38 20.056C422.583 19.896 422.86 19.816 423.212 19.816C423.65 19.816 424.044 19.9333 424.396 20.168C424.759 20.4027 425.01 20.7173 425.148 21.112L426.748 20.36C426.482 19.656 426.034 19.1067 425.404 18.712C424.775 18.3067 424.05 18.104 423.228 18.104C422.599 18.104 422.039 18.216 421.548 18.44C421.068 18.664 420.69 18.9787 420.412 19.384C420.146 19.7787 420.012 20.2427 420.012 20.776C420.012 21.3733 420.199 21.8907 420.572 22.328C420.956 22.7653 421.516 23.0907 422.252 23.304L423.676 23.704C423.954 23.7787 424.188 23.8907 424.38 24.04C424.583 24.1787 424.684 24.3707 424.684 24.616C424.684 24.904 424.567 25.1333 424.332 25.304C424.108 25.464 423.81 25.544 423.436 25.544C422.946 25.544 422.503 25.4053 422.108 25.128C421.714 24.8507 421.399 24.4667 421.164 23.976L419.596 24.728C419.852 25.4747 420.322 26.072 421.004 26.52C421.698 26.968 422.508 27.192 423.436 27.192ZM428.343 30.2H430.439V26.168C430.759 26.4987 431.149 26.7547 431.607 26.936C432.066 27.1067 432.562 27.192 433.095 27.192C433.938 27.192 434.69 26.9947 435.351 26.6C436.013 26.1947 436.535 25.6507 436.919 24.968C437.303 24.2747 437.495 23.5013 437.495 22.648C437.495 21.7947 437.303 21.0267 436.919 20.344C436.535 19.6507 436.013 19.1067 435.351 18.712C434.69 18.3067 433.943 18.104 433.111 18.104C432.514 18.104 431.975 18.2107 431.495 18.424C431.015 18.6373 430.621 18.936 430.311 19.32V18.296H428.343V30.2ZM432.855 25.272C432.397 25.272 431.981 25.16 431.607 24.936C431.245 24.712 430.957 24.4027 430.743 24.008C430.541 23.6133 430.439 23.16 430.439 22.648C430.439 22.136 430.541 21.6827 430.743 21.288C430.957 20.8933 431.245 20.584 431.607 20.36C431.981 20.136 432.397 20.024 432.855 20.024C433.335 20.024 433.757 20.1413 434.119 20.376C434.493 20.6 434.786 20.9093 434.999 21.304C435.213 21.6987 435.319 22.1467 435.319 22.648C435.319 23.1493 435.213 23.6027 434.999 24.008C434.786 24.4027 434.493 24.712 434.119 24.936C433.757 25.16 433.335 25.272 432.855 25.272ZM443.221 27.192C444.107 27.192 444.88 26.9947 445.541 26.6C446.213 26.1947 446.683 25.6827 446.949 25.064L445.253 24.232C445.061 24.5627 444.795 24.8347 444.453 25.048C444.123 25.2507 443.717 25.352 443.237 25.352C442.608 25.352 442.08 25.16 441.653 24.776C441.227 24.392 440.981 23.88 440.917 23.24H447.189C447.232 23.1227 447.259 22.9893 447.269 22.84C447.291 22.68 447.301 22.52 447.301 22.36C447.301 21.5813 447.136 20.872 446.805 20.232C446.475 19.592 445.995 19.08 445.365 18.696C444.736 18.3013 443.968 18.104 443.061 18.104C442.251 18.104 441.515 18.3013 440.853 18.696C440.203 19.0907 439.685 19.6293 439.301 20.312C438.928 20.984 438.741 21.7573 438.741 22.632C438.741 23.4747 438.928 24.2427 439.301 24.936C439.675 25.6293 440.197 26.1787 440.869 26.584C441.541 26.9893 442.325 27.192 443.221 27.192ZM443.061 19.832C443.616 19.832 444.075 20.0027 444.437 20.344C444.811 20.6747 445.019 21.1067 445.061 21.64H440.965C441.083 21.064 441.328 20.6213 441.701 20.312C442.085 19.992 442.539 19.832 443.061 19.832ZM453.018 27.192C453.903 27.192 454.677 26.9947 455.338 26.6C456.01 26.1947 456.479 25.6827 456.746 25.064L455.05 24.232C454.858 24.5627 454.591 24.8347 454.25 25.048C453.919 25.2507 453.514 25.352 453.034 25.352C452.405 25.352 451.877 25.16 451.45 24.776C451.023 24.392 450.778 23.88 450.714 23.24H456.986C457.029 23.1227 457.055 22.9893 457.066 22.84C457.087 22.68 457.098 22.52 457.098 22.36C457.098 21.5813 456.933 20.872 456.602 20.232C456.271 19.592 455.791 19.08 455.162 18.696C454.533 18.3013 453.765 18.104 452.858 18.104C452.047 18.104 451.311 18.3013 450.65 18.696C449.999 19.0907 449.482 19.6293 449.098 20.312C448.725 20.984 448.538 21.7573 448.538 22.632C448.538 23.4747 448.725 24.2427 449.098 24.936C449.471 25.6293 449.994 26.1787 450.666 26.584C451.338 26.9893 452.122 27.192 453.018 27.192ZM452.858 19.832C453.413 19.832 453.871 20.0027 454.234 20.344C454.607 20.6747 454.815 21.1067 454.858 21.64H450.762C450.879 21.064 451.125 20.6213 451.498 20.312C451.882 19.992 452.335 19.832 452.858 19.832ZM462.735 27.192C463.3 27.192 463.823 27.096 464.303 26.904C464.783 26.7013 465.183 26.4133 465.503 26.04V27H467.487V14.888H465.391V19.176C464.74 18.4613 463.85 18.104 462.719 18.104C461.898 18.104 461.151 18.3067 460.479 18.712C459.818 19.1067 459.295 19.6507 458.911 20.344C458.527 21.0267 458.335 21.7947 458.335 22.648C458.335 23.5013 458.527 24.2747 458.911 24.968C459.295 25.6507 459.818 26.1947 460.479 26.6C461.14 26.9947 461.892 27.192 462.735 27.192ZM462.959 25.272C462.49 25.272 462.068 25.16 461.695 24.936C461.322 24.712 461.028 24.4027 460.815 24.008C460.612 23.6027 460.511 23.1493 460.511 22.648C460.511 22.1467 460.612 21.6987 460.815 21.304C461.028 20.9093 461.322 20.6 461.695 20.376C462.068 20.1413 462.49 20.024 462.959 20.024C463.428 20.024 463.844 20.136 464.207 20.36C464.58 20.584 464.868 20.8933 465.071 21.288C465.284 21.6827 465.391 22.136 465.391 22.648C465.391 23.16 465.284 23.6133 465.071 24.008C464.868 24.4027 464.58 24.712 464.207 24.936C463.844 25.16 463.428 25.272 462.959 25.272ZM470.429 27H472.541V24.76H470.429V27Z" fill="#E19603"/>
</svg>
