<svg width="732" height="270" viewBox="0 0 732 270" fill="none" xmlns="http://www.w3.org/2000/svg">
<ellipse cx="154.5" cy="76.5" rx="154.5" ry="17.5" fill="#BC4F07"/>
<path d="M66.6 57.2C66.6 48.88 61.16 43.84 50.92 41.84L39.8 39.68C36.76 39.12 34.2 37.6 34.2 35.04C34.2 31.92 36.92 29.52 41.4 29.52C46.44 29.52 49.96 32.88 50.36 38.08H65.64C64.76 25.68 54.92 17.84 41.24 17.84C28.36 17.84 18.92 25.36 18.92 36.08C18.92 45.36 25 50.72 34.2 52.48L44.68 54.48C48.04 55.12 50.52 56.96 50.52 59.44C50.52 63.04 47.08 65.04 41.88 65.04C35.64 65.04 32.04 61.6 31.88 56.16H16.6C17.64 68.88 27.24 76.8 42.2 76.8C57.16 76.8 66.6 69.04 66.6 57.2ZM124.03 18.56H108.91V53.36C108.91 59.36 106.75 63.68 99.15 63.68C91.47 63.68 89.31 59.36 89.31 53.36V18.56H74.19V53.12C74.19 67.04 82.83 77.2 99.15 77.2C115.31 77.2 124.03 67.04 124.03 53.12V18.56ZM157.453 58.48C172.493 58.48 181.533 51.12 181.533 38.16C181.533 25.28 172.493 18.56 157.453 18.56H135.053V76H150.173V58.48H157.453ZM157.373 31.28C163.373 31.28 166.493 33.84 166.493 38.32C166.493 42.72 163.373 45.76 157.373 45.76H150.173V31.28H157.373ZM229.834 62.88H204.314V53.04H226.954V39.92H204.314V31.68H229.274V18.56H189.194V76H229.834V62.88ZM253.611 76V56.88H258.571L270.331 76H288.331L274.251 54.48C282.011 51.2 286.411 45.12 286.411 37.76C286.411 25.52 277.531 18.56 262.011 18.56H238.491V76H253.611ZM253.611 31.04H261.371C268.091 31.04 271.211 33.2 271.211 37.76C271.211 42.32 268.091 44.4 261.371 44.4H253.611V31.04ZM351.13 76V62.32H326.97V18.56H311.85V76H351.13ZM380.59 77.2C397.23 77.2 410.27 64.64 410.27 47.2C410.27 29.76 397.23 17.36 380.59 17.36C364.03 17.36 350.99 29.76 350.99 47.2C350.99 64.64 364.03 77.2 380.59 77.2ZM380.59 63.68C371.55 63.68 366.51 56.24 366.51 47.2C366.51 38.16 371.55 30.88 380.59 30.88C389.63 30.88 394.67 38.16 394.67 47.2C394.67 56.24 389.63 63.68 380.59 63.68ZM454.82 76H469.38V18.56H455.54V51.76L434.34 18.56H418.1V76H431.94V40.16L454.82 76ZM507.08 77.2C526.12 77.2 537.56 62.96 536.36 44H506.36V55.92H520.2C518.52 60.72 514.44 64.4 507.88 64.4C497.48 64.4 492.76 56.96 492.76 47.36C492.76 36.08 498.76 30.88 506.2 30.88C512.04 30.88 516.28 34.16 517.72 38.56H535.64C531.64 25.68 521 17.36 506.6 17.36C489.72 17.36 477.24 30 477.24 46.96C477.24 64.88 490.36 77.2 507.08 77.2ZM35.72 166V146.88H40.68L52.44 166H70.44L56.36 144.48C64.12 141.2 68.52 135.12 68.52 127.76C68.52 115.52 59.64 108.56 44.12 108.56H20.6V166H35.72ZM35.72 121.04H43.48C50.2 121.04 53.32 123.2 53.32 127.76C53.32 132.32 50.2 134.4 43.48 134.4H35.72V121.04ZM114.681 166H131.001L109.961 108.56H93.4006L72.1206 166H87.4006L91.0006 155.36H111.161L114.681 166ZM101.241 125.2L107.241 143.44H95.0806L101.241 125.2ZM173.804 166H188.364V108.56H174.524V141.76L153.324 108.56H137.084V166H150.924V130.16L173.804 166ZM226.064 167.2C245.104 167.2 256.544 152.96 255.344 134H225.344V145.92H239.184C237.504 150.72 233.424 154.4 226.864 154.4C216.464 154.4 211.744 146.96 211.744 137.36C211.744 126.08 217.744 120.88 225.184 120.88C231.024 120.88 235.264 124.16 236.704 128.56H254.624C250.624 115.68 239.984 107.36 225.584 107.36C208.704 107.36 196.224 120 196.224 136.96C196.224 154.88 209.344 167.2 226.064 167.2ZM303.896 152.88H278.376V143.04H301.016V129.92H278.376V121.68H303.336V108.56H263.256V166H303.896V152.88Z" fill="white"/>
<path d="M369.912 152.88H344.392V143.04H367.032V129.92H344.392V121.68H369.352V108.56H329.272V166H369.912V152.88ZM417.849 166V152.32H393.689V108.56H378.569V166H417.849ZM466.474 152.88H440.954V143.04H463.594V129.92H440.954V121.68H465.914V108.56H425.834V166H466.474V152.88ZM500.971 167.2C516.731 167.2 528.811 156.8 530.731 141.44H514.731C513.451 148.72 508.091 153.68 501.131 153.68C492.651 153.68 487.291 147.04 487.291 137.2C487.291 127.44 492.651 120.88 501.131 120.88C508.171 120.88 513.531 125.84 514.731 133.04H530.731C528.891 117.84 516.731 107.36 500.971 107.36C484.651 107.36 471.771 120.4 471.771 137.2C471.771 154.08 484.651 167.2 500.971 167.2ZM566.108 166V122.24H583.708V108.56H533.388V122.24H550.988V166H566.108ZM605.642 166V146.88H610.602L622.362 166H640.362L626.282 144.48C634.042 141.2 638.442 135.12 638.442 127.76C638.442 115.52 629.562 108.56 614.042 108.56H590.522V166H605.642ZM605.642 121.04H613.402C620.122 121.04 623.242 123.2 623.242 127.76C623.242 132.32 620.122 134.4 613.402 134.4H605.642V121.04ZM662.283 166V108.56H647.163V166H662.283ZM699.331 167.2C715.091 167.2 727.171 156.8 729.091 141.44H713.091C711.811 148.72 706.451 153.68 699.491 153.68C691.011 153.68 685.651 147.04 685.651 137.2C685.651 127.44 691.011 120.88 699.491 120.88C706.531 120.88 711.891 125.84 713.091 133.04H729.091C727.251 117.84 715.091 107.36 699.331 107.36C683.011 107.36 670.131 120.4 670.131 137.2C670.131 154.08 683.011 167.2 699.331 167.2ZM66.6 237.2C66.6 228.88 61.16 223.84 50.92 221.84L39.8 219.68C36.76 219.12 34.2 217.6 34.2 215.04C34.2 211.92 36.92 209.52 41.4 209.52C46.44 209.52 49.96 212.88 50.36 218.08H65.64C64.76 205.68 54.92 197.84 41.24 197.84C28.36 197.84 18.92 205.36 18.92 216.08C18.92 225.36 25 230.72 34.2 232.48L44.68 234.48C48.04 235.12 50.52 236.96 50.52 239.44C50.52 243.04 47.08 245.04 41.88 245.04C35.64 245.04 32.04 241.6 31.88 236.16H16.6C17.64 248.88 27.24 256.8 42.2 256.8C57.16 256.8 66.6 249.04 66.6 237.2ZM89.47 256V230.08L106.75 256H125.15L104.35 225.52L124.59 198.56H107.39L89.47 222.72V198.56H74.35V256H89.47ZM168.665 256H184.985L163.945 198.56H147.385L126.105 256H141.385L144.985 245.36H165.145L168.665 256ZM155.225 215.2L161.225 233.44H149.065L155.225 215.2ZM214.623 256V212.24H232.223V198.56H181.903V212.24H199.503V256H214.623ZM279.678 242.88H254.158V233.04H276.798V219.92H254.158V211.68H279.118V198.56H239.038V256H279.678V242.88ZM333.454 238.72C333.454 232.64 330.174 228.4 324.334 225.92C329.134 223.04 331.774 219.12 331.774 214.08C331.774 204.08 323.934 198.56 311.374 198.56H288.334V256H312.094C325.454 256 333.454 249.52 333.454 238.72ZM310.174 210.48C315.214 210.48 317.534 212.4 317.534 215.36C317.534 218.48 315.214 220.4 310.174 220.4H302.014V210.48H310.174ZM310.894 232.32C316.574 232.32 319.214 234.64 319.214 238.16C319.214 241.84 316.574 244.08 310.894 244.08H302.014V232.32H310.894ZM368.793 257.2C385.433 257.2 398.473 244.64 398.473 227.2C398.473 209.76 385.433 197.36 368.793 197.36C352.233 197.36 339.193 209.76 339.193 227.2C339.193 244.64 352.233 257.2 368.793 257.2ZM368.793 243.68C359.753 243.68 354.713 236.24 354.713 227.2C354.713 218.16 359.753 210.88 368.793 210.88C377.833 210.88 382.873 218.16 382.873 227.2C382.873 236.24 377.833 243.68 368.793 243.68ZM440.54 256H456.86L435.82 198.56H419.26L397.98 256H413.26L416.86 245.36H437.02L440.54 256ZM427.1 215.2L433.1 233.44H420.94L427.1 215.2ZM478.064 256V236.88H483.024L494.784 256H512.784L498.704 234.48C506.464 231.2 510.864 225.12 510.864 217.76C510.864 205.52 501.984 198.56 486.464 198.56H462.944V256H478.064ZM478.064 211.04H485.824C492.544 211.04 495.664 213.2 495.664 217.76C495.664 222.32 492.544 224.4 485.824 224.4H478.064V211.04ZM541.984 256C559.744 256 571.584 243.68 571.584 226.96C571.584 210.24 560.144 198.56 541.984 198.56H519.584V256H541.984ZM534.704 211.6H541.104C550.944 211.6 556.064 216.8 556.064 226.96C556.064 237.76 551.104 242.96 541.104 242.96H534.704V211.6Z" fill="#FFCFB4"/>
</svg>
