<svg width="229" height="68" viewBox="0 0 229 68" fill="none" xmlns="http://www.w3.org/2000/svg">
<rect width="229" height="68" rx="34" fill="white"/>
<rect x="8" y="8" width="52" height="52" rx="26" fill="#C6EED1"/>
<path d="M45.2263 29.9993C45.0396 29.986 44.7996 29.9727 44.5329 29.9727C44.0129 29.9727 43.5996 30.386 43.5996 30.906V37.106C43.5996 37.626 44.0129 38.0393 44.5329 38.0393C44.7996 38.0393 45.0263 38.026 45.2529 38.0127C47.3329 37.7727 47.3329 36.306 47.3329 35.2393V32.7593C47.3329 31.6927 47.3329 30.226 45.2263 29.9993Z" fill="#0B7529"/>
<path d="M35.2393 24.3867H27.7993C22.3327 24.3867 20.666 26.0534 20.666 31.5201V36.4801C20.666 41.9467 22.3327 43.6134 27.7993 43.6134H35.2393C40.706 43.6134 42.3727 41.9467 42.3727 36.4801V31.5201C42.3727 26.0534 40.706 24.3867 35.2393 24.3867ZM34.706 36.2401C34.6793 36.2934 34.6393 36.3467 34.5993 36.3867L32.106 39.3067C31.906 39.5334 31.626 39.6534 31.346 39.6534C31.1193 39.6534 30.8793 39.5734 30.6927 39.4134C30.2794 39.0534 30.226 38.4267 30.586 38.0001L32.986 35.1867C32.9993 35.1467 32.986 35.1067 32.9593 35.0667C32.9327 35.0134 32.8793 34.9867 32.8127 34.9867H30.1593C29.3727 34.9867 28.6793 34.5867 28.2793 33.9067C27.8927 33.2267 27.8927 32.4267 28.2793 31.7467L30.5593 28.7334C30.8927 28.2934 31.5194 28.2001 31.9593 28.5334C32.3993 28.8667 32.4927 29.4934 32.1593 29.9334L29.9593 32.8534C29.9993 32.8001 29.9993 32.8534 30.026 32.9201C30.0527 32.9734 30.106 33.0001 30.1727 33.0001H32.8527C33.6393 33.0001 34.3327 33.4001 34.7327 34.0801C35.0927 34.7601 35.0927 35.5601 34.706 36.2401Z" fill="#0B7529"/>
<path d="M77.202 16.688C74.412 16.688 72.486 18.542 72.486 20.882C72.486 23.186 74.214 24.824 76.698 24.824C76.896 24.824 77.094 24.806 77.31 24.734L73.818 29H76.644L80.298 24.572C81.468 23.186 81.9 22.214 81.9 20.72C81.9 18.542 79.956 16.688 77.202 16.688ZM77.184 18.776C78.3 18.776 79.29 19.496 79.29 20.81C79.29 22.232 78.3 22.862 77.184 22.862C76.032 22.862 75.078 22.178 75.078 20.792C75.078 19.496 76.032 18.776 77.184 18.776ZM87.4668 29.18C90.5268 29.18 92.0748 27.11 92.0748 25.022C92.0748 22.97 90.6888 20.972 87.7908 20.972C87.0708 20.972 86.3688 21.152 85.7568 21.548L86.1348 19.064H91.3548V16.832H84.3168L83.2548 23.654L85.3068 24.32C85.6848 23.492 86.4048 23.096 87.3768 23.096C88.8528 23.096 89.4828 24.068 89.4828 25.022C89.4828 26.012 88.9248 26.948 87.4488 26.948C86.3148 26.948 85.4868 26.354 85.3428 25.292H82.8408C82.9128 27.56 84.8748 29.18 87.4668 29.18ZM96.958 24.284C99.208 24.284 100.9 22.574 100.9 20.504C100.9 18.416 99.208 16.724 96.958 16.724C94.69 16.724 93.016 18.416 93.016 20.504C93.016 22.574 94.69 24.284 96.958 24.284ZM99.946 29L106.858 16.832H104.86L97.948 29H99.946ZM96.958 22.52C95.95 22.52 95.05 21.836 95.05 20.504C95.05 19.172 95.95 18.488 96.958 18.488C97.984 18.488 98.848 19.172 98.848 20.504C98.848 21.836 97.984 22.52 96.958 22.52ZM108.154 29.162C110.422 29.162 112.096 27.452 112.096 25.382C112.096 23.294 110.422 21.602 108.154 21.602C105.886 21.602 104.212 23.294 104.212 25.382C104.212 27.452 105.886 29.162 108.154 29.162ZM108.154 27.38C107.146 27.38 106.246 26.714 106.246 25.382C106.246 24.032 107.146 23.366 108.154 23.366C109.18 23.366 110.062 24.032 110.062 25.382C110.062 26.714 109.18 27.38 108.154 27.38Z" fill="black"/>
<path d="M81.024 48.784C81.024 47.408 80.224 46.4 78.672 46.016C79.84 45.584 80.56 44.608 80.56 43.472C80.56 41.584 79.248 40.512 77.024 40.512H73.296V52H77.264C79.52 52 81.024 50.832 81.024 48.784ZM76.96 41.488C78.512 41.488 79.392 42.256 79.392 43.536C79.392 44.816 78.512 45.584 76.96 45.584H74.416V41.488H76.96ZM77.2 46.56C78.88 46.56 79.872 47.376 79.872 48.752C79.872 50.192 78.88 51.024 77.2 51.024H74.416V46.56H77.2ZM88.3844 52H89.3444V46.512C89.3444 44.56 88.1924 43.408 86.2244 43.408C84.3044 43.408 83.0084 44.656 82.9604 46.528H83.9844C84.0004 45.152 84.8644 44.304 86.2404 44.304C87.5204 44.304 88.2724 45.136 88.2724 46.544V47.248C87.4404 47.184 87.0564 47.152 86.5444 47.152C83.9844 47.152 82.6724 48.016 82.6724 49.664C82.6724 51.184 83.8084 52.16 85.5524 52.16C86.8644 52.16 87.8884 51.52 88.3844 50.464V52ZM83.7444 49.632C83.7444 48.464 84.6724 47.904 86.5924 47.904C87.0564 47.904 87.5524 47.92 88.2724 47.984V48.736C88.2724 50.32 87.2804 51.344 85.7124 51.344C84.5284 51.344 83.7444 50.656 83.7444 49.632ZM95.9895 50.928C95.6375 51.072 95.3495 51.136 94.9975 51.136C94.0695 51.136 93.4295 50.688 93.4295 49.376V44.512H96.0695V43.568H93.4295V41.072H92.3095V43.568H90.3255V44.512H92.3095V49.616C92.3095 51.44 93.3815 52.16 94.7735 52.16C95.1895 52.16 95.5575 52.096 95.9895 51.92V50.928ZM102.396 50.928C102.044 51.072 101.756 51.136 101.404 51.136C100.476 51.136 99.8358 50.688 99.8358 49.376V44.512H102.476V43.568H99.8358V41.072H98.7158V43.568H96.7317V44.512H98.7158V49.616C98.7158 51.44 99.7878 52.16 101.18 52.16C101.596 52.16 101.964 52.096 102.396 51.92V50.928ZM107.216 52.16C109.152 52.16 110.576 51.024 110.96 49.152H109.856C109.584 50.496 108.608 51.28 107.2 51.28C105.552 51.28 104.496 50.048 104.4 48.048H110.928C111.12 45.344 109.552 43.408 107.152 43.408C104.912 43.408 103.28 45.248 103.28 47.712C103.28 50.384 104.848 52.16 107.216 52.16ZM107.136 44.272C108.688 44.272 109.664 45.392 109.76 47.28H104.4C104.544 45.44 105.616 44.272 107.136 44.272ZM113.899 47.488C113.899 45.648 115.259 44.544 117.035 44.608V43.44C115.643 43.44 114.395 44.24 113.819 45.488V43.568H112.779V52H113.899V47.488ZM125.056 43.568H123.92L121.344 50.544L118.624 43.568H117.424L120.768 51.888L119.536 55.088H120.736L125.056 43.568ZM130.98 52V47.456H133.604L136.692 52H138.132L134.884 47.312C136.692 47.008 137.828 45.712 137.828 43.984C137.828 41.776 136.308 40.512 133.876 40.512H129.78V52H130.98ZM130.98 41.52H133.78C135.54 41.52 136.628 42.384 136.628 43.984C136.628 45.584 135.54 46.448 133.78 46.448H130.98V41.52ZM142.762 52.16C144.698 52.16 146.122 51.024 146.506 49.152H145.402C145.13 50.496 144.154 51.28 142.746 51.28C141.098 51.28 140.042 50.048 139.946 48.048H146.474C146.666 45.344 145.098 43.408 142.698 43.408C140.458 43.408 138.826 45.248 138.826 47.712C138.826 50.384 140.394 52.16 142.762 52.16ZM142.682 44.272C144.234 44.272 145.21 45.392 145.306 47.28H139.946C140.09 45.44 141.162 44.272 142.682 44.272ZM149.445 52V47.056C149.445 45.504 150.469 44.384 151.765 44.384C153.125 44.384 153.861 45.296 153.861 46.896V52H154.981V47.056C154.981 45.504 156.021 44.384 157.301 44.384C158.661 44.384 159.397 45.296 159.397 46.896V52H160.501V46.528C160.501 44.56 159.413 43.408 157.669 43.408C156.341 43.408 155.285 44.176 154.757 45.36C154.405 44.128 153.429 43.408 152.117 43.408C150.917 43.408 149.925 44.064 149.365 45.152V43.568H148.325V52H149.445ZM168.041 52H169.001V46.512C169.001 44.56 167.849 43.408 165.881 43.408C163.961 43.408 162.665 44.656 162.617 46.528H163.641C163.657 45.152 164.521 44.304 165.897 44.304C167.177 44.304 167.929 45.136 167.929 46.544V47.248C167.097 47.184 166.713 47.152 166.201 47.152C163.641 47.152 162.329 48.016 162.329 49.664C162.329 51.184 163.465 52.16 165.209 52.16C166.521 52.16 167.545 51.52 168.041 50.464V52ZM163.401 49.632C163.401 48.464 164.329 47.904 166.249 47.904C166.713 47.904 167.209 47.92 167.929 47.984V48.736C167.929 50.32 166.937 51.344 165.369 51.344C164.185 51.344 163.401 50.656 163.401 49.632ZM172.813 41.616C172.813 41.136 172.445 40.784 171.901 40.784C171.373 40.784 171.005 41.136 171.005 41.616C171.005 42.112 171.373 42.464 171.901 42.464C172.445 42.464 172.813 42.112 172.813 41.616ZM172.477 52V43.568H171.357V52H172.477ZM176.024 47.088C176.024 45.52 177.08 44.384 178.391 44.384C179.768 44.384 180.504 45.296 180.504 46.912V52H181.624V46.528C181.624 44.528 180.488 43.408 178.728 43.408C177.512 43.408 176.488 44.112 175.944 45.152V43.568H174.904V52H176.024V47.088ZM185.438 41.616C185.438 41.136 185.07 40.784 184.526 40.784C183.998 40.784 183.63 41.136 183.63 41.616C183.63 42.112 183.998 42.464 184.526 42.464C185.07 42.464 185.438 42.112 185.438 41.616ZM185.102 52V43.568H183.982V52H185.102ZM188.649 47.088C188.649 45.52 189.705 44.384 191.016 44.384C192.393 44.384 193.129 45.296 193.129 46.912V52H194.249V46.528C194.249 44.528 193.113 43.408 191.353 43.408C190.137 43.408 189.113 44.112 188.569 45.152V43.568H187.529V52H188.649V47.088ZM199.791 55.264C202.095 55.264 203.423 53.984 203.423 51.808V43.568H202.383V45.36C201.839 44.128 200.783 43.408 199.519 43.408C197.391 43.408 195.983 45.104 195.983 47.664C195.983 50.224 197.407 51.936 199.535 51.936C200.783 51.936 201.807 51.248 202.319 50.064V51.824C202.319 53.488 201.439 54.368 199.775 54.368C198.271 54.368 197.375 53.632 197.279 52.256H196.207C196.303 54.144 197.647 55.264 199.791 55.264ZM197.103 47.664C197.103 45.616 198.095 44.368 199.695 44.368C201.295 44.368 202.335 45.68 202.335 47.744C202.335 49.696 201.279 50.976 199.695 50.976C198.079 50.976 197.103 49.728 197.103 47.664Z" fill="#A2968F"/>
</svg>
