<svg width="178" height="60" viewBox="0 0 178 60" fill="none" xmlns="http://www.w3.org/2000/svg">
<rect width="178" height="60" rx="30" fill="white"/>
<rect x="8" y="8" width="44" height="44" rx="22" fill="#FF6600"/>
<path d="M35.49 27.5996L23.6 34.7696C22.9 35.1896 22 34.6896 22 33.8696V25.8696C22 22.3796 25.77 20.1996 28.8 21.9396L33.39 24.5796L35.48 25.7796C36.17 26.1896 36.18 27.1896 35.49 27.5996Z" fill="white"/>
<path d="M36.0908 33.4606L32.0408 35.8006L28.0008 38.1306C26.5508 38.9606 24.9108 38.7906 23.7208 37.9506C23.1408 37.5506 23.2108 36.6606 23.8208 36.3006L36.5308 28.6806C37.1308 28.3206 37.9208 28.6606 38.0308 29.3506C38.2808 30.9006 37.6408 32.5706 36.0908 33.4606Z" fill="white"/>
<path d="M70.102 32.788C73.252 32.788 75.214 31.186 75.214 28.378C75.214 25.57 73.252 24.076 70.102 24.076H65.332V37H68.068V32.788H70.102ZM70.084 26.38C71.632 26.38 72.496 27.118 72.496 28.396C72.496 29.674 71.632 30.484 70.084 30.484H68.068V26.38H70.084ZM79.3782 37V24.076H76.8582V37H79.3782ZM87.3459 37H89.3799V30.952C89.3799 28.594 87.9039 27.208 85.3839 27.208C83.0619 27.208 81.4599 28.648 81.3159 30.862H83.5659C83.6559 29.782 84.3039 29.152 85.3839 29.152C86.4279 29.152 87.0399 29.782 87.0399 30.862V31.438C86.4459 31.366 85.9779 31.33 85.4379 31.33C82.6299 31.33 81.1179 32.338 81.1179 34.21C81.1179 36.01 82.4499 37.18 84.4479 37.18C85.7619 37.18 86.7159 36.712 87.3459 35.812V37ZM83.4759 34.138C83.4759 33.274 84.1779 32.824 85.5999 32.824C86.0319 32.824 86.4459 32.86 87.0399 32.95V33.634C87.0399 34.75 86.2659 35.452 84.9879 35.452C84.0519 35.452 83.4759 34.948 83.4759 34.138ZM99.8599 27.388H97.3579L95.1619 33.976L92.7499 27.388H90.0499L93.8299 36.892L92.4619 40.474H95.1799L99.8599 27.388ZM116.06 24.076H113.324L109.976 33.814L106.7 24.076H103.748L108.392 37H111.38L116.06 24.076ZM120.221 25.156C120.221 24.274 119.537 23.644 118.547 23.644C117.575 23.644 116.891 24.274 116.891 25.156C116.891 26.002 117.575 26.632 118.547 26.632C119.537 26.632 120.221 26.002 120.221 25.156ZM119.825 37V27.388H117.323V37H119.825ZM121.422 32.194C121.422 35.002 123.096 37.18 125.688 37.18C126.93 37.18 127.974 36.622 128.73 35.614V37H131.016V24.076H128.532V28.63C127.812 27.712 126.84 27.208 125.688 27.208C123.096 27.208 121.422 29.35 121.422 32.194ZM123.996 32.194C123.996 30.358 125.022 29.422 126.246 29.422C127.47 29.422 128.514 30.34 128.514 32.158C128.514 33.976 127.488 34.948 126.246 34.948C125.022 34.948 123.996 33.994 123.996 32.194ZM137.425 37.162C139.765 37.162 141.439 35.92 141.979 33.742H139.495C139.207 34.696 138.469 35.236 137.371 35.236C136.093 35.236 135.337 34.372 135.175 32.806H141.997C142.447 29.674 140.431 27.208 137.389 27.208C134.617 27.208 132.619 29.296 132.619 32.158C132.619 35.164 134.545 37.162 137.425 37.162ZM137.335 29.044C138.523 29.044 139.279 29.89 139.351 31.222H135.211C135.427 29.8 136.165 29.044 137.335 29.044ZM147.745 37.18C150.535 37.18 152.623 34.984 152.623 32.194C152.623 29.386 150.535 27.208 147.745 27.208C144.955 27.208 142.867 29.386 142.867 32.194C142.867 34.984 144.955 37.18 147.745 37.18ZM147.745 34.966C146.503 34.966 145.441 33.976 145.441 32.194C145.441 30.412 146.503 29.44 147.745 29.44C148.987 29.44 150.049 30.412 150.049 32.194C150.049 33.976 148.987 34.966 147.745 34.966Z" fill="black"/>
</svg>
