<svg width="189" height="68" viewBox="0 0 189 68" fill="none" xmlns="http://www.w3.org/2000/svg">
<rect width="189" height="68" rx="34" fill="white"/>
<rect x="8" y="8" width="52" height="52" rx="26" fill="#FFEDD2"/>
<path d="M41.88 32.2938H37.76V22.6938C37.76 20.4538 36.5467 20.0005 35.0667 21.6805L34 22.8938L24.9733 33.1605C23.7333 34.5605 24.2533 35.7072 26.12 35.7072H30.24V45.3072C30.24 47.5472 31.4533 48.0005 32.9333 46.3205L34 45.1072L43.0267 34.8405C44.2667 33.4405 43.7467 32.2938 41.88 32.2938Z" fill="#FFC062"/>
<path d="M82.242 26.606V24.428H80.532V16.832H78.552L72.27 24.752V26.606H78.048V29H80.532V26.606H82.242ZM75.006 24.428L78.048 20.414V24.428H75.006ZM87.977 29.144C90.749 29.144 92.693 27.29 92.693 24.95C92.693 22.646 90.947 21.008 88.463 21.008C88.265 21.008 88.067 21.026 87.869 21.098L91.361 16.832H88.535L84.863 21.26C83.729 22.61 83.279 23.582 83.279 25.112C83.279 27.29 85.205 29.144 87.977 29.144ZM87.995 27.056C86.861 27.056 85.889 26.336 85.889 25.022C85.889 23.6 86.861 22.97 87.995 22.97C89.129 22.97 90.101 23.654 90.101 25.04C90.101 26.336 89.129 27.056 87.995 27.056ZM100.561 29V24.536L104.233 29H107.419L102.973 23.996L106.951 19.388H104.071L100.561 23.456V16.076H98.0594V29H100.561ZM118.165 24.194C118.165 21.368 116.491 19.208 113.899 19.208C112.675 19.208 111.613 19.766 110.875 20.792V19.388H108.571V32.474H111.073V27.758C111.793 28.694 112.765 29.18 113.899 29.18C116.491 29.18 118.165 27.038 118.165 24.194ZM115.591 24.194C115.591 26.03 114.565 26.948 113.341 26.948C112.117 26.948 111.091 26.012 111.091 24.194C111.091 22.376 112.117 21.422 113.341 21.422C114.565 21.422 115.591 22.394 115.591 24.194ZM122.27 23.762C122.27 22.214 123.116 21.422 124.106 21.422C125.24 21.422 125.798 22.214 125.798 23.636V29H128.282V22.79C128.282 20.468 126.95 19.208 125.024 19.208C123.764 19.208 122.936 19.766 122.27 20.648V16.076H119.768V29H122.27V23.762Z" fill="black"/>
<path d="M77.36 52V41.584H81.216V40.512H72.32V41.584H76.176V52H77.36ZM87.4205 48.592C87.4205 50.096 86.4445 51.184 85.1005 51.184C83.9165 51.184 83.0685 50.528 83.0685 48.816V43.568H81.9485V49.056C81.9485 51.184 83.0845 52.16 84.7965 52.16C86.0285 52.16 87.0525 51.456 87.4845 50.48V52H88.5245V43.568H87.4205V48.592ZM92.0704 47.488C92.0704 45.648 93.4304 44.544 95.2064 44.608V43.44C93.8144 43.44 92.5664 44.24 91.9904 45.488V43.568H90.9504V52H92.0704V47.488ZM104.303 47.776C104.303 45.184 102.847 43.408 100.591 43.408C99.3114 43.408 98.2394 44.112 97.6954 45.344V40.512H96.5754V52H97.6154V50.224C98.2074 51.456 99.2954 52.16 100.591 52.16C102.847 52.16 104.303 50.368 104.303 47.776ZM103.167 47.776C103.167 49.92 102.063 51.184 100.415 51.184C98.7994 51.184 97.6794 49.856 97.6794 47.744C97.6794 45.616 98.8314 44.384 100.415 44.384C102.063 44.384 103.167 45.632 103.167 47.776ZM109.483 52.16C111.819 52.16 113.499 50.32 113.499 47.776C113.499 45.248 111.819 43.424 109.483 43.424C107.163 43.424 105.483 45.248 105.483 47.776C105.483 50.32 107.163 52.16 109.483 52.16ZM109.483 51.184C107.851 51.184 106.619 49.872 106.619 47.776C106.619 45.712 107.851 44.4 109.483 44.4C111.131 44.4 112.363 45.712 112.363 47.776C112.363 49.872 111.131 51.184 109.483 51.184ZM126.782 48.816C126.782 47.088 125.678 46.288 123.742 45.888L122.286 45.584C121.006 45.328 119.854 44.912 119.854 43.552C119.854 42.4 120.798 41.328 122.558 41.328C124.206 41.328 125.326 42.432 125.406 43.952H126.638C126.51 41.76 124.782 40.352 122.542 40.352C120.254 40.352 118.638 41.776 118.638 43.616C118.638 45.616 120.238 46.32 121.758 46.624L123.214 46.912C124.846 47.248 125.517 47.792 125.517 48.976C125.517 50.352 124.238 51.184 122.606 51.184C120.622 51.184 119.598 50.128 119.486 48.496H118.27C118.382 50.672 119.95 52.16 122.622 52.16C125.294 52.16 126.782 50.64 126.782 48.816ZM136.663 47.776C136.663 45.2 135.207 43.408 132.967 43.408C131.671 43.408 130.551 44.144 129.975 45.392V43.568H128.935V55.088H130.055V50.272C130.631 51.472 131.703 52.16 132.967 52.16C135.207 52.16 136.663 50.384 136.663 47.776ZM135.527 47.776C135.527 49.936 134.423 51.184 132.775 51.184C131.175 51.184 130.039 49.872 130.039 47.776C130.039 45.632 131.207 44.384 132.775 44.384C134.423 44.384 135.527 45.648 135.527 47.776ZM141.778 52.16C143.714 52.16 145.138 51.024 145.522 49.152H144.418C144.146 50.496 143.17 51.28 141.762 51.28C140.114 51.28 139.058 50.048 138.962 48.048H145.49C145.682 45.344 144.114 43.408 141.714 43.408C139.474 43.408 137.842 45.248 137.842 47.712C137.842 50.384 139.41 52.16 141.778 52.16ZM141.698 44.272C143.25 44.272 144.226 45.392 144.322 47.28H138.962C139.106 45.44 140.178 44.272 141.698 44.272ZM150.497 52.16C152.433 52.16 153.857 51.024 154.241 49.152H153.137C152.865 50.496 151.889 51.28 150.481 51.28C148.833 51.28 147.777 50.048 147.681 48.048H154.209C154.401 45.344 152.833 43.408 150.433 43.408C148.193 43.408 146.561 45.248 146.561 47.712C146.561 50.384 148.129 52.16 150.497 52.16ZM150.417 44.272C151.969 44.272 152.945 45.392 153.041 47.28H147.681C147.825 45.44 148.897 44.272 150.417 44.272ZM155.28 47.776C155.28 50.368 156.72 52.16 158.992 52.16C160.288 52.16 161.376 51.456 161.968 50.224V52H163.008V40.512H161.888V45.328C161.328 44.128 160.256 43.408 158.992 43.408C156.72 43.408 155.28 45.184 155.28 47.776ZM156.416 47.776C156.416 45.632 157.504 44.384 159.152 44.384C160.752 44.384 161.904 45.616 161.904 47.744C161.904 49.856 160.784 51.184 159.152 51.184C157.504 51.184 156.416 49.92 156.416 47.776Z" fill="#A2968F"/>
</svg>
