<svg width="53" height="30" viewBox="0 0 53 30" fill="none" xmlns="http://www.w3.org/2000/svg">
<path d="M11.072 5.31085C11.4079 4.47438 12.5921 4.47438 12.928 5.31085L14.8696 10.1458C15.0126 10.502 15.3469 10.7449 15.7299 10.7709L20.9282 11.1233C21.8275 11.1843 22.1934 12.3105 21.5017 12.8884L17.5034 16.2291C17.2088 16.4752 17.0811 16.8682 17.1747 17.2404L18.4459 22.2932C18.6658 23.1674 17.7078 23.8634 16.9444 23.3841L12.5317 20.6138C12.2066 20.4097 11.7934 20.4097 11.4683 20.6138L7.05561 23.3841C6.29219 23.8634 5.3342 23.1674 5.55411 22.2932L6.82525 17.2404C6.9189 16.8682 6.79121 16.4752 6.49664 16.2291L2.49831 12.8884C1.80658 12.3105 2.1725 11.1843 3.07183 11.1233L8.27012 10.7709C8.6531 10.7449 8.9874 10.502 9.13045 10.1458L11.072 5.31085Z" fill="#FFC062"/>
<path d="M32.806 22.18C35.416 22.18 37 20.47 37 18.184C37 16.096 35.488 14.368 33.004 14.368C32.068 14.368 31.24 14.656 30.502 15.322L31.168 10.93H36.316V9.832H30.268L29.206 16.6L30.178 16.888C30.772 15.952 31.672 15.448 32.842 15.448C34.57 15.448 35.722 16.672 35.722 18.202C35.722 19.912 34.66 21.064 32.806 21.064C31.276 21.064 30.16 20.11 30.052 18.616H28.828C28.9 20.686 30.592 22.18 32.806 22.18ZM40.9833 20.956C40.9833 20.272 40.5153 19.804 39.8493 19.804C39.2013 19.804 38.7153 20.272 38.7153 20.956C38.7153 21.604 39.2013 22.09 39.8493 22.09C40.5153 22.09 40.9833 21.604 40.9833 20.956ZM42.7344 15.934C42.7344 19.966 44.2464 22.18 47.0544 22.18C49.8444 22.18 51.3744 19.966 51.3744 15.934C51.3744 11.902 49.8084 9.652 47.0544 9.652C44.2824 9.652 42.7344 11.902 42.7344 15.934ZM44.0304 15.934C44.0304 12.532 45.0924 10.768 47.0544 10.768C49.0164 10.768 50.0784 12.55 50.0784 15.934C50.0784 19.3 49.0164 21.064 47.0544 21.064C45.0564 21.064 44.0304 19.282 44.0304 15.934Z" fill="black"/>
</svg>
