<svg width="44" height="44" viewBox="0 0 44 44" fill="none" xmlns="http://www.w3.org/2000/svg">
<rect width="44" height="44" rx="22" fill="white"/>
<path d="M23.0017 24.75H22.0017C21.5917 24.75 21.2517 24.41 21.2517 24C21.2517 23.59 21.5917 23.25 22.0017 23.25H23.0017C23.6917 23.25 24.2517 22.69 24.2517 22V12.75H16.0017C14.8217 12.75 13.7417 13.39 13.1617 14.42C12.9617 14.78 12.5017 14.91 12.1417 14.71C11.7817 14.51 11.6517 14.05 11.8517 13.69C12.6917 12.19 14.2817 11.25 16.0017 11.25H25.0017C25.4117 11.25 25.7517 11.59 25.7517 12V22C25.7517 23.52 24.5217 24.75 23.0017 24.75Z" fill="#FF6600"/>
<path d="M29 30.75H28C27.59 30.75 27.25 30.41 27.25 30C27.25 29.31 26.69 28.75 26 28.75C25.31 28.75 24.75 29.31 24.75 30C24.75 30.41 24.41 30.75 24 30.75H20C19.59 30.75 19.25 30.41 19.25 30C19.25 29.31 18.69 28.75 18 28.75C17.31 28.75 16.75 29.31 16.75 30C16.75 30.41 16.41 30.75 16 30.75H15C12.93 30.75 11.25 29.07 11.25 27C11.25 26.59 11.59 26.25 12 26.25C12.41 26.25 12.75 26.59 12.75 27C12.75 28.24 13.76 29.25 15 29.25H15.35C15.68 28.1 16.74 27.25 18 27.25C19.26 27.25 20.32 28.1 20.65 29.25H23.36C23.69 28.1 24.75 27.25 26.01 27.25C27.27 27.25 28.33 28.1 28.66 29.25H29C30.24 29.25 31.25 28.24 31.25 27V24.75H29C28.04 24.75 27.25 23.96 27.25 23V20C27.25 19.04 28.03 18.25 29 18.25L27.93 16.38C27.71 15.99 27.29 15.75 26.84 15.75H25.75V22C25.75 23.52 24.52 24.75 23 24.75H22C21.59 24.75 21.25 24.41 21.25 24C21.25 23.59 21.59 23.25 22 23.25H23C23.69 23.25 24.25 22.69 24.25 22V15C24.25 14.59 24.59 14.25 25 14.25H26.84C27.83 14.25 28.74 14.78 29.23 15.64L30.94 18.63C31.07 18.86 31.07 19.15 30.94 19.38C30.81 19.61 30.56 19.75 30.29 19.75H29C28.86 19.75 28.75 19.86 28.75 20V23C28.75 23.14 28.86 23.25 29 23.25H32C32.41 23.25 32.75 23.59 32.75 24V27C32.75 29.07 31.07 30.75 29 30.75Z" fill="#FF6600"/>
<path d="M18 32.75C16.48 32.75 15.25 31.52 15.25 30C15.25 28.48 16.48 27.25 18 27.25C19.52 27.25 20.75 28.48 20.75 30C20.75 31.52 19.52 32.75 18 32.75ZM18 28.75C17.31 28.75 16.75 29.31 16.75 30C16.75 30.69 17.31 31.25 18 31.25C18.69 31.25 19.25 30.69 19.25 30C19.25 29.31 18.69 28.75 18 28.75Z" fill="#FF6600"/>
<path d="M26 32.75C24.48 32.75 23.25 31.52 23.25 30C23.25 28.48 24.48 27.25 26 27.25C27.52 27.25 28.75 28.48 28.75 30C28.75 31.52 27.52 32.75 26 32.75ZM26 28.75C25.31 28.75 24.75 29.31 24.75 30C24.75 30.69 25.31 31.25 26 31.25C26.69 31.25 27.25 30.69 27.25 30C27.25 29.31 26.69 28.75 26 28.75Z" fill="#FF6600"/>
<path d="M32 24.75H29C28.04 24.75 27.25 23.96 27.25 23V20C27.25 19.04 28.04 18.25 29 18.25H30.29C30.56 18.25 30.81 18.39 30.94 18.63L32.65 21.63C32.71 21.74 32.75 21.87 32.75 22V24C32.75 24.41 32.41 24.75 32 24.75ZM29 19.75C28.86 19.75 28.75 19.86 28.75 20V23C28.75 23.14 28.86 23.25 29 23.25H31.25V22.2L29.85 19.75H29Z" fill="#FF6600"/>
<path d="M18 18.75H12C11.59 18.75 11.25 18.41 11.25 18C11.25 17.59 11.59 17.25 12 17.25H18C18.41 17.25 18.75 17.59 18.75 18C18.75 18.41 18.41 18.75 18 18.75Z" fill="#FF6600"/>
<path d="M16 21.75H12C11.59 21.75 11.25 21.41 11.25 21C11.25 20.59 11.59 20.25 12 20.25H16C16.41 20.25 16.75 20.59 16.75 21C16.75 21.41 16.41 21.75 16 21.75Z" fill="#FF6600"/>
<path d="M14 24.75H12C11.59 24.75 11.25 24.41 11.25 24C11.25 23.59 11.59 23.25 12 23.25H14C14.41 23.25 14.75 23.59 14.75 24C14.75 24.41 14.41 24.75 14 24.75Z" fill="#FF6600"/>
</svg>
