<svg width="32" height="32" viewBox="0 0 32 32" fill="none" xmlns="http://www.w3.org/2000/svg">
<path d="M16 18.6665H17.3333C18.8 18.6665 20 17.4665 20 15.9998V2.6665H8C6 2.6665 4.25335 3.77315 3.34668 5.39982" stroke="black" stroke-width="1.5" stroke-linecap="round" stroke-linejoin="round"/>
<path d="M2.6665 22.6665C2.6665 24.8798 4.45317 26.6665 6.6665 26.6665H7.99984C7.99984 25.1998 9.19984 23.9998 10.6665 23.9998C12.1332 23.9998 13.3332 25.1998 13.3332 26.6665H18.6665C18.6665 25.1998 19.8665 23.9998 21.3332 23.9998C22.7998 23.9998 23.9998 25.1998 23.9998 26.6665H25.3332C27.5465 26.6665 29.3332 24.8798 29.3332 22.6665V18.6665H25.3332C24.5998 18.6665 23.9998 18.0665 23.9998 17.3332V13.3332C23.9998 12.5998 24.5998 11.9998 25.3332 11.9998H27.0531L24.7732 8.01318C24.2932 7.18652 23.4132 6.6665 22.4532 6.6665H19.9998V15.9998C19.9998 17.4665 18.7998 18.6665 17.3332 18.6665H15.9998" stroke="black" stroke-width="1.5" stroke-linecap="round" stroke-linejoin="round"/>
<path d="M10.6667 29.3333C12.1394 29.3333 13.3333 28.1394 13.3333 26.6667C13.3333 25.1939 12.1394 24 10.6667 24C9.19391 24 8 25.1939 8 26.6667C8 28.1394 9.19391 29.3333 10.6667 29.3333Z" stroke="black" stroke-width="1.5" stroke-linecap="round" stroke-linejoin="round"/>
<path d="M21.3332 29.3333C22.8059 29.3333 23.9998 28.1394 23.9998 26.6667C23.9998 25.1939 22.8059 24 21.3332 24C19.8604 24 18.6665 25.1939 18.6665 26.6667C18.6665 28.1394 19.8604 29.3333 21.3332 29.3333Z" stroke="black" stroke-width="1.5" stroke-linecap="round" stroke-linejoin="round"/>
<path d="M29.3333 16V18.6667H25.3333C24.6 18.6667 24 18.0667 24 17.3333V13.3333C24 12.6 24.6 12 25.3333 12H27.0533L29.3333 16Z" stroke="black" stroke-width="1.5" stroke-linecap="round" stroke-linejoin="round"/>
<path d="M2.6665 10.6665H10.6665" stroke="black" stroke-width="1.5" stroke-linecap="round" stroke-linejoin="round"/>
<path d="M2.6665 14.6665H7.99984" stroke="black" stroke-width="1.5" stroke-linecap="round" stroke-linejoin="round"/>
<path d="M2.6665 18.6665H5.33317" stroke="black" stroke-width="1.5" stroke-linecap="round" stroke-linejoin="round"/>
</svg>
