<svg width="136" height="24" viewBox="0 0 136 24" fill="none" xmlns="http://www.w3.org/2000/svg">
<path d="M11.072 2.31085C11.4079 1.47438 12.5921 1.47438 12.928 2.31085L14.8696 7.1458C15.0126 7.502 15.3469 7.74489 15.7299 7.77086L20.9282 8.12333C21.8275 8.18431 22.1934 9.3105 21.5017 9.88844L17.5034 13.2291C17.2088 13.4752 17.0811 13.8682 17.1747 14.2404L18.4459 19.2932C18.6658 20.1674 17.7078 20.8634 16.9444 20.3841L12.5317 17.6138C12.2066 17.4097 11.7934 17.4097 11.4683 17.6138L7.05561 20.3841C6.29219 20.8634 5.3342 20.1674 5.55411 19.2932L6.82525 14.2404C6.9189 13.8682 6.79121 13.4752 6.49664 13.2291L2.49831 9.88844C1.80658 9.3105 2.1725 8.18431 3.07183 8.12333L8.27012 7.77086C8.6531 7.74489 8.9874 7.502 9.13045 7.1458L11.072 2.31085Z" fill="#FFC062"/>
<path d="M39.072 2.31085C39.4079 1.47438 40.5921 1.47438 40.928 2.31085L42.8696 7.1458C43.0126 7.502 43.3469 7.74489 43.7299 7.77086L48.9282 8.12333C49.8275 8.18431 50.1934 9.3105 49.5017 9.88844L45.5034 13.2291C45.2088 13.4752 45.0811 13.8682 45.1747 14.2404L46.4459 19.2932C46.6658 20.1674 45.7078 20.8634 44.9444 20.3841L40.5317 17.6138C40.2066 17.4097 39.7934 17.4097 39.4683 17.6138L35.0556 20.3841C34.2922 20.8634 33.3342 20.1674 33.5541 19.2932L34.8253 14.2404C34.9189 13.8682 34.7912 13.4752 34.4966 13.2291L30.4983 9.88844C29.8066 9.3105 30.1725 8.18431 31.0718 8.12333L36.2701 7.77086C36.6531 7.74489 36.9874 7.502 37.1304 7.1458L39.072 2.31085Z" fill="#FFC062"/>
<path d="M67.072 2.31085C67.4079 1.47438 68.5921 1.47438 68.928 2.31085L70.8696 7.1458C71.0126 7.502 71.3469 7.74489 71.7299 7.77086L76.9282 8.12333C77.8275 8.18431 78.1934 9.3105 77.5017 9.88844L73.5034 13.2291C73.2088 13.4752 73.0811 13.8682 73.1747 14.2404L74.4459 19.2932C74.6658 20.1674 73.7078 20.8634 72.9444 20.3841L68.5317 17.6138C68.2066 17.4097 67.7934 17.4097 67.4683 17.6138L63.0556 20.3841C62.2922 20.8634 61.3342 20.1674 61.5541 19.2932L62.8253 14.2404C62.9189 13.8682 62.7912 13.4752 62.4966 13.2291L58.4983 9.88844C57.8066 9.3105 58.1725 8.18431 59.0718 8.12333L64.2701 7.77086C64.6531 7.74489 64.9874 7.502 65.1304 7.1458L67.072 2.31085Z" fill="#FFC062"/>
<path d="M95.072 2.31085C95.4079 1.47438 96.5921 1.47438 96.928 2.31085L98.8696 7.1458C99.0126 7.502 99.3469 7.74489 99.7299 7.77086L104.928 8.12333C105.827 8.18431 106.193 9.3105 105.502 9.88844L101.503 13.2291C101.209 13.4752 101.081 13.8682 101.175 14.2404L102.446 19.2932C102.666 20.1674 101.708 20.8634 100.944 20.3841L96.5317 17.6138C96.2066 17.4097 95.7934 17.4097 95.4683 17.6138L91.0556 20.3841C90.2922 20.8634 89.3342 20.1674 89.5541 19.2932L90.8253 14.2404C90.9189 13.8682 90.7912 13.4752 90.4966 13.2291L86.4983 9.88844C85.8066 9.3105 86.1725 8.18431 87.0718 8.12333L92.2701 7.77086C92.6531 7.74489 92.9874 7.502 93.1304 7.1458L95.072 2.31085Z" fill="#FFC062"/>
<path d="M123.072 2.31085C123.408 1.47438 124.592 1.47438 124.928 2.31085L126.87 7.1458C127.013 7.502 127.347 7.74489 127.73 7.77086L132.928 8.12333C133.827 8.18431 134.193 9.3105 133.502 9.88844L129.503 13.2291C129.209 13.4752 129.081 13.8682 129.175 14.2404L130.446 19.2932C130.666 20.1674 129.708 20.8634 128.944 20.3841L124.532 17.6138C124.207 17.4097 123.793 17.4097 123.468 17.6138L119.056 20.3841C118.292 20.8634 117.334 20.1674 117.554 19.2932L118.825 14.2404C118.919 13.8682 118.791 13.4752 118.497 13.2291L114.498 9.88844C113.807 9.3105 114.173 8.18431 115.072 8.12333L120.27 7.77086C120.653 7.74489 120.987 7.502 121.13 7.1458L123.072 2.31085Z" fill="#FFC062"/>
</svg>
