<svg width="100" height="50" viewBox="0 0 100 50" fill="none" xmlns="http://www.w3.org/2000/svg">
<g clip-path="url(#clip0_3468_1816)">
<path fill-rule="evenodd" clip-rule="evenodd" d="M52.7528 5.66057C53.2658 4.68824 53.6969 3.67394 54.0417 2.62843C54.4613 1.61772 54.8809 0.607008 53.6021 0.313901C51.9003 0.00395521 50.1617 -0.0403577 48.4467 0.182507C45.3045 0.653656 42.3723 2.06114 40.0243 4.22536C38.4227 5.72716 37.1498 7.5517 36.2877 9.58144C35.4255 11.6112 34.9932 13.8011 35.0186 16.0102C35.0441 18.2192 35.5266 20.3984 36.4352 22.4073C37.3438 24.4162 38.6583 26.2102 40.294 27.6739C43.2914 30.4635 43.5411 29.4629 44.2905 27.6739C45.929 23.4592 45.5693 24.9147 43.631 22.8427C42.7235 21.8997 42.0097 20.7841 41.5311 19.5603C41.0525 18.3364 40.8185 17.0288 40.8427 15.7129C40.8668 14.397 41.1487 13.099 41.6719 11.894C42.1951 10.689 42.9493 9.60095 43.8908 8.69271C48.6265 4.51847 51.8836 6.67129 52.7828 5.74143" fill="white"/>
<path fill-rule="evenodd" clip-rule="evenodd" d="M64.7414 22.923L65.7405 20.3154C65.6806 19.0621 67.3191 16.2119 65.3409 10.37C64.224 7.33778 62.2287 4.71702 59.616 2.85025C57.6178 1.42514 57.5379 2.74917 56.2491 6.11485C55.4798 8.13628 56.8086 7.28728 58.6769 10.0364C59.7699 11.5767 60.4063 13.4003 60.5116 15.2934C60.6169 17.1865 60.1867 19.0708 59.2714 20.7254C58.356 22.3801 56.9935 23.7365 55.3435 24.6359C53.6934 25.5353 51.8242 25.9403 49.9547 25.8035C48.6659 25.6924 48.6159 25.6519 48.0464 27.1175C46.8675 30.2103 45.8884 31.1603 48.5959 31.5242C52.5655 32.1031 56.6006 31.0753 59.8258 28.6639C60.4603 28.1953 61.0613 27.6819 61.6242 27.1276C63.6224 25.187 64.1819 23.489 64.7214 22.923" fill="white"/>
<path fill-rule="evenodd" clip-rule="evenodd" d="M12.2989 30.5137C14.427 30.5137 14.2971 30.7259 14.6168 29.8264L24.8476 4.33618C25.0774 3.88136 24.8476 4.15425 25.1474 4.00264H28.5743L17.784 30.5035H21.3108L33.4599 0.748144L22.7795 0.6875L13.2481 24.4999L4.86562 4.01275H8.52233C8.71216 4.63939 12.7086 14.787 13.2381 15.7876C13.7576 14.6455 14.2372 13.2911 14.6968 12.0985C15.0764 11.1585 14.8866 11.2191 14.5069 10.2691L12.209 4.53832C11.7594 3.41643 11.0201 1.8296 10.7104 0.71782H0C1.06904 3.1031 1.9982 5.77139 2.9973 8.18699C3.9964 10.6026 5.04546 13.1799 6.05455 15.6663L10.6204 26.8549C10.8802 27.4714 11.14 28.0879 11.3798 28.7045L11.9592 30.1397C12.1291 30.5137 11.9592 30.3823 12.269 30.5238" fill="white"/>
<path fill-rule="evenodd" clip-rule="evenodd" d="M72.2051 31.0094H79.3387C80.5576 29.3114 84.1144 22.9237 85.1135 21.6097C85.5631 22.3476 86.1126 23.1359 86.5821 23.9445L89.4795 28.6948C89.9242 29.5226 90.4569 30.2987 91.0681 31.0094H98.0618C97.0627 29.2204 88.8201 16.0913 88.8101 15.6769C88.8001 15.2625 97.1326 2.07266 98.0618 0.384766H90.9082C90.4587 1.23376 89.9091 2.14341 89.3796 2.93176L83.1153 13.1299C82.5558 14.0092 82.0662 14.9087 81.5367 15.7274C80.6675 17.0312 79.0189 19.9522 78.3196 20.882V0.384766H72.325L72.2051 31.0094Z" fill="white"/>
<path fill-rule="evenodd" clip-rule="evenodd" d="M9.35103 43.8346H19.8516C19.8516 41.9243 20.0214 42.3589 18.7526 42.3589H9.49091C9.2811 42.5408 9.35103 42.1264 9.35103 43.8346Z" fill="white"/>
<path d="M9.35103 43.8346H19.8516C19.8516 41.9243 20.0214 42.3589 18.7526 42.3589H9.49091C9.2811 42.5408 9.35103 42.1264 9.35103 43.8346Z" stroke="white" stroke-width="0.22" stroke-miterlimit="22.93"/>
<path fill-rule="evenodd" clip-rule="evenodd" d="M99.8905 42.3594H88.9004C88.9004 44.0675 88.9004 43.4914 89.0203 43.8148H99.7806C99.9605 43.6228 99.8905 44.1483 99.8905 42.3594Z" fill="white"/>
<path d="M99.8905 42.3594H88.9004C88.9004 44.0675 88.9004 43.4914 89.0203 43.8148H99.7806C99.9605 43.6228 99.8905 44.1483 99.8905 42.3594Z" stroke="white" stroke-width="0.22" stroke-miterlimit="22.93"/>
<path fill-rule="evenodd" clip-rule="evenodd" d="M24.2969 49.4644C27.8737 49.8485 35.8265 50.0708 33.7484 44.4108C33.3787 43.4001 32.8492 43.3395 31.95 42.6926C32.3638 42.4004 32.7041 42.0141 32.9435 41.5648C33.183 41.1154 33.3149 40.6155 33.3287 40.1052C33.3287 36.0623 27.0444 36.5576 24.3368 36.9922L24.2969 49.4644ZM25.9954 42.1974V38.2354C28.2833 38.2354 31.5104 37.6593 31.5803 40.0446C31.6802 42.8442 28.2233 42.1974 25.9954 42.1974V42.1974ZM25.9954 48.11V43.6528C28.2833 43.6528 32.3596 43.0262 32.2897 45.846C32.2197 48.6659 28.4531 48.11 25.9954 48.11Z" fill="white"/>
<path d="M24.2969 49.4644C27.8737 49.8485 35.8265 50.0708 33.7484 44.4108C33.3787 43.4001 32.8492 43.3395 31.95 42.6926C32.3638 42.4004 32.7041 42.0141 32.9435 41.5648C33.183 41.1154 33.3149 40.6155 33.3287 40.1052C33.3287 36.0623 27.0444 36.5576 24.3368 36.9922L24.2969 49.4644ZM25.9954 42.1974V38.2354C28.2833 38.2354 31.5104 37.6593 31.5803 40.0446C31.6802 42.8442 28.2233 42.1974 25.9954 42.1974V42.1974ZM25.9954 48.11V43.6528C28.2833 43.6528 32.3596 43.0262 32.2897 45.846C32.2197 48.6659 28.4531 48.11 25.9954 48.11Z" stroke="white" stroke-width="0.47" stroke-miterlimit="22.93"/>
<path fill-rule="evenodd" clip-rule="evenodd" d="M63.1524 49.5859V44.0876C65.6102 43.7137 69.3069 43.1477 69.5866 46.3819C69.6766 47.4836 69.7365 48.5449 69.8464 49.5657H72.0045C71.1552 48.2821 71.385 47.9081 71.2551 46.1293C71.2722 45.5613 71.1614 44.9969 70.9312 44.4786C70.701 43.9604 70.3574 43.5018 69.9263 43.1376C71.7747 41.8236 72.4441 38.7814 69.9263 37.3664C68.4077 36.4972 63.5121 36.8206 61.5039 36.8206V49.5657L63.1524 49.5859ZM67.8582 42.5614C66.3309 42.7851 64.7797 42.7851 63.2523 42.5614C63.159 41.8073 63.1256 41.0469 63.1524 40.2873C63.1524 37.6797 63.1524 38.4276 63.642 38.2659C65.0207 38.2053 68.3377 38.0335 69.137 38.741C70.1761 39.6304 70.0462 42.6019 67.8582 42.5614V42.5614Z" fill="white"/>
<path d="M63.1524 49.5859V44.0876C65.6102 43.7137 69.3069 43.1477 69.5866 46.3819C69.6766 47.4836 69.7365 48.5449 69.8464 49.5657H72.0045C71.1552 48.2821 71.385 47.9081 71.2551 46.1293C71.2722 45.5613 71.1614 44.9969 70.9312 44.4786C70.701 43.9604 70.3574 43.5018 69.9263 43.1376C71.7747 41.8236 72.4441 38.7814 69.9263 37.3664C68.4077 36.4972 63.5121 36.8206 61.5039 36.8206V49.5657L63.1524 49.5859ZM67.8582 42.5614C66.3309 42.7851 64.7797 42.7851 63.2523 42.5614C63.159 41.8073 63.1256 41.0469 63.1524 40.2873C63.1524 37.6797 63.1524 38.4276 63.642 38.2659C65.0207 38.2053 68.3377 38.0335 69.137 38.741C70.1761 39.6304 70.0462 42.6019 67.8582 42.5614V42.5614Z" stroke="white" stroke-width="0.47" stroke-miterlimit="22.93"/>
<path fill-rule="evenodd" clip-rule="evenodd" d="M74.043 49.5657C78.489 49.5657 84.2638 50.7685 84.4336 43.2285C84.5835 36.4264 79.8977 36.8408 74.043 36.8408V49.5657ZM75.7814 38.2963C80.0975 37.8414 82.7751 38.6803 82.7751 43.2184C82.7751 47.7565 80.2174 48.6662 75.7814 48.0193V38.2963Z" fill="white"/>
<path d="M74.043 49.5657C78.489 49.5657 84.2638 50.7685 84.4336 43.2285C84.5835 36.4264 79.8977 36.8408 74.043 36.8408V49.5657ZM75.7814 38.2963C80.0975 37.8414 82.7751 38.6803 82.7751 43.2184C82.7751 47.7565 80.2174 48.6662 75.7814 48.0193V38.2963Z" stroke="white" stroke-width="0.47" stroke-miterlimit="22.93"/>
<path fill-rule="evenodd" clip-rule="evenodd" d="M47.4871 44.5429C48.1964 40.6011 46.0883 37.3365 42.9511 36.6796C38.7449 35.8002 36.1672 38.2563 35.5378 41.7331C33.8593 50.8195 45.9984 52.8106 47.4871 44.5429ZM37.2762 44.5429C35.9874 37.2557 44.4997 35.5577 45.7586 41.7635C47.2373 49.0709 38.3952 50.8296 37.2762 44.5429Z" fill="white"/>
<path d="M47.4871 44.5429C48.1964 40.6011 46.0883 37.3365 42.9511 36.6796C38.7449 35.8002 36.1672 38.2563 35.5378 41.7331C33.8593 50.8195 45.9984 52.8106 47.4871 44.5429ZM37.2762 44.5429C35.9874 37.2557 44.4997 35.5577 45.7586 41.7635C47.2373 49.0709 38.3952 50.8296 37.2762 44.5429Z" stroke="white" stroke-width="0.47" stroke-miterlimit="22.93"/>
<path fill-rule="evenodd" clip-rule="evenodd" d="M51.6034 45.8657C56.5989 45.8657 56.9585 44.855 57.8777 49.5649H59.816L55.36 36.84C52.8722 36.84 53.4517 36.557 52.2228 39.8721C51.7732 41.0648 51.4335 41.9744 51.0139 43.1469C50.2646 45.2593 49.3154 47.3615 48.666 49.5952H50.3345L51.6034 45.8657ZM53.9513 39.4476C54.0483 39.2499 54.1804 39.0717 54.3409 38.9221L56.0494 44.3496L52.2528 44.2485L53.9513 39.4476Z" fill="white"/>
<path d="M51.6034 45.8657C56.5989 45.8657 56.9585 44.855 57.8777 49.5649H59.816L55.36 36.84C52.8722 36.84 53.4517 36.557 52.2228 39.8721C51.7732 41.0648 51.4335 41.9744 51.0139 43.1469C50.2646 45.2593 49.3154 47.3615 48.666 49.5952H50.3345L51.6034 45.8657ZM53.9513 39.4476C54.0483 39.2499 54.1804 39.0717 54.3409 38.9221L56.0494 44.3496L52.2528 44.2485L53.9513 39.4476Z" stroke="white" stroke-width="0.47" stroke-miterlimit="22.93"/>
</g>
<defs>
<clipPath id="clip0_3468_1816">
<rect width="100" height="50" fill="white"/>
</clipPath>
</defs>
</svg>
